<svg width="39" height="40" viewBox="0 0 39 40" fill="none" xmlns="http://www.w3.org/2000/svg">
<path id="Vector" d="M19.5148 10.1259C14.1202 10.1259 9.76886 14.5345 9.76886 20.0001C9.76886 25.4657 14.1202 29.8743 19.5148 29.8743C24.9095 29.8743 29.2608 25.4657 29.2608 20.0001C29.2608 14.5345 24.9095 10.1259 19.5148 10.1259ZM19.5148 26.4196C16.0287 26.4196 13.1787 23.5407 13.1787 20.0001C13.1787 16.4595 16.0202 13.5806 19.5148 13.5806C23.0095 13.5806 25.851 16.4595 25.851 20.0001C25.851 23.5407 23.001 26.4196 19.5148 26.4196ZM31.9327 9.72197C31.9327 11.0024 30.9148 12.0251 29.6595 12.0251C28.3957 12.0251 27.3863 10.9938 27.3863 9.72197C27.3863 8.4501 28.4041 7.41885 29.6595 7.41885C30.9148 7.41885 31.9327 8.4501 31.9327 9.72197ZM38.3876 12.0595C38.2434 8.97432 37.5479 6.2415 35.3171 3.98994C33.0948 1.73838 30.3974 1.03369 27.3523 0.879004C24.214 0.698535 14.8073 0.698535 11.6689 0.879004C8.63226 1.0251 5.93493 1.72979 3.70413 3.98135C1.47333 6.23291 0.786272 8.96572 0.633594 12.0509C0.455469 15.2306 0.455469 24.761 0.633594 27.9407C0.77779 31.0259 1.47333 33.7587 3.70413 36.0103C5.93493 38.2618 8.62377 38.9665 11.6689 39.1212C14.8073 39.3017 24.214 39.3017 27.3523 39.1212C30.3974 38.9751 33.0948 38.2704 35.3171 36.0103C37.5394 33.7587 38.2349 31.0259 38.3876 27.9407C38.5657 24.761 38.5657 15.2392 38.3876 12.0595ZM34.3331 31.3524C33.6715 33.0368 32.3907 34.3345 30.7198 35.0134C28.2175 36.0188 22.28 35.7868 19.5148 35.7868C16.7497 35.7868 10.8037 36.0103 8.30993 35.0134C6.64743 34.3431 5.36663 33.0454 4.69654 31.3524C3.70413 28.8173 3.93315 22.8017 3.93315 20.0001C3.93315 17.1985 3.71261 11.1743 4.69654 8.64775C5.35815 6.96338 6.63895 5.66572 8.30993 4.98682C10.8122 3.98135 16.7497 4.21338 19.5148 4.21338C22.28 4.21338 28.226 3.98994 30.7198 4.98682C32.3823 5.65713 33.6631 6.95478 34.3331 8.64775C35.3256 11.1829 35.0965 17.1985 35.0965 20.0001C35.0965 22.8017 35.3256 28.8259 34.3331 31.3524Z" fill="#44474C"/>
</svg>
