<svg width="544" height="544" viewBox="0 0 544 544" fill="none" xmlns="http://www.w3.org/2000/svg">
<path d="M272 0L352.47 80.4698C382.514 110.514 382.514 159.294 352.47 189.338L326.434 215.374C296.39 245.418 247.61 245.418 217.566 215.374L191.53 189.338C161.486 159.294 161.486 110.514 191.53 80.4698L272 0Z" fill="#0693E3"/>
<path d="M0 272L80.4698 191.53C110.514 161.486 159.294 161.486 189.338 191.53L215.374 217.566C245.418 247.61 245.418 296.39 215.374 326.434L189.338 352.47C159.31 382.53 110.514 382.514 80.4698 352.47L0 272Z" fill="#0693E3"/>
<path d="M204.548 476.548L272 544L339.452 476.548C376.713 439.287 376.697 378.889 339.452 341.644C302.19 304.383 241.793 304.399 204.548 341.644C167.303 378.889 167.287 439.287 204.548 476.548Z" fill="#0693E3"/>
<path d="M476.548 339.452L544 272L476.548 204.548C439.287 167.287 378.889 167.303 341.644 204.548C304.383 241.81 304.399 302.207 341.644 339.452C378.906 376.714 439.303 376.697 476.548 339.452Z" fill="#0693E3"/>
</svg>
