<svg width="39" height="40" viewBox="0 0 39 40" fill="none" xmlns="http://www.w3.org/2000/svg">
<path id="Vector" d="M9.02883 39.2563H1.14892V13.5524H9.02883V39.2563ZM5.08463 10.0462C2.56544 10.0462 0.52124 7.93213 0.52124 5.37979C0.52124 4.15357 1.00202 2.97758 1.85783 2.11052C2.71363 1.24346 3.87435 0.756348 5.08463 0.756348C6.29492 0.756348 7.45564 1.24346 8.31144 2.11052C9.16724 2.97758 9.64803 4.15357 9.64803 5.37979C9.64803 7.93213 7.60383 10.0462 5.08463 10.0462ZM38.5128 39.2563H30.6498V26.7438C30.6498 23.7618 30.5904 19.9376 26.5529 19.9376C22.4561 19.9376 21.8284 23.1774 21.8284 26.529V39.2563H13.957V13.5524H21.5145V17.0587H21.6248C22.6766 15.0392 25.2467 12.9079 29.0806 12.9079C37.0538 12.9079 38.5212 18.2274 38.5212 25.1368V39.2563H38.5128Z" fill="#44474C"/>
</svg>
