<?xml version="1.0" encoding="utf-8"?>
<!-- Generator: Adobe Illustrator 28.0.0, SVG Export Plug-In . SVG Version: 6.00 Build 0)  -->
<svg version="1.1" id="Ebene_1" xmlns="http://www.w3.org/2000/svg" xmlns:xlink="http://www.w3.org/1999/xlink" x="0px" y="0px"
	 viewBox="0 0 199.1 64.6" style="enable-background:new 0 0 199.1 64.6;" xml:space="preserve">
<style type="text/css">
	.st0{clip-path:url(#SVGID_00000000198382308425520690000000994629433678488756_);}
	.st1{fill:#FFFFFF;filter:url(#Adobe_OpacityMaskFilter);}
	.st2{mask:url(#mask0_104_925_00000164497427494408036800000017545410608173944223_);}
	.st3{fill:#44474C;}
	.st4{fill-opacity:0.2;}
	.st5{fill:#44474C;fill-opacity:0.2;}
</style>
<g>
	<defs>
		<rect id="SVGID_1_" x="0.8" y="0.3" width="197.4" height="63.4"/>
	</defs>
	<clipPath id="SVGID_00000124137417926364764470000014600421565303288741_">
		<use xlink:href="#SVGID_1_"  style="overflow:visible;"/>
	</clipPath>
	<g style="clip-path:url(#SVGID_00000124137417926364764470000014600421565303288741_);">
		<defs>
			<filter id="Adobe_OpacityMaskFilter" filterUnits="userSpaceOnUse" x="0.8" y="0.3" width="197.4" height="63.4">
				<feColorMatrix  type="matrix" values="1 0 0 0 0  0 1 0 0 0  0 0 1 0 0  0 0 0 1 0"/>
			</filter>
		</defs>
		
			<mask maskUnits="userSpaceOnUse" x="0.8" y="0.3" width="197.4" height="63.4" id="mask0_104_925_00000164497427494408036800000017545410608173944223_">
			<path class="st1" d="M198.2,0.3H0.8v63.4h197.4V0.3z"/>
		</mask>
		<g class="st2">
			<path class="st3" d="M85.2,21.3L85.2,21.3c0-1.3,0.6-2.6,1.5-3.5c0.9-0.9,2.2-1.4,3.5-1.4c1.3,0,2.6,0.5,3.5,1.4
				c1,0.9,1.5,2.1,1.6,3.5v0c0,1.3-0.6,2.5-1.5,3.5c-0.9,0.9-2.2,1.4-3.5,1.4c-1.3,0-2.6-0.5-3.5-1.4C85.8,23.8,85.2,22.6,85.2,21.3
				 M93.1,21.3L93.1,21.3c0-0.4-0.1-0.8-0.2-1.2c-0.1-0.4-0.4-0.7-0.6-1c-0.3-0.3-0.6-0.5-1-0.6c-0.4-0.2-0.7-0.2-1.1-0.2
				c-0.4,0-0.8,0.1-1.1,0.2c-0.4,0.1-0.7,0.4-0.9,0.6c-0.3,0.3-0.5,0.6-0.6,1c-0.1,0.4-0.2,0.7-0.2,1.1v0c0,0.4,0.1,0.8,0.2,1.1
				c0.1,0.4,0.4,0.7,0.6,1c0.3,0.3,0.6,0.5,1,0.7c0.4,0.2,0.7,0.2,1.1,0.2c0.4,0,0.8-0.1,1.1-0.2c0.4-0.1,0.7-0.4,0.9-0.6
				c0.3-0.3,0.5-0.6,0.6-1C93.1,22,93.1,21.7,93.1,21.3"/>
			<path class="st4" d="M85.2,21.3L85.2,21.3c0-1.3,0.6-2.6,1.5-3.5c0.9-0.9,2.2-1.4,3.5-1.4c1.3,0,2.6,0.5,3.5,1.4
				c1,0.9,1.5,2.1,1.6,3.5v0c0,1.3-0.6,2.5-1.5,3.5c-0.9,0.9-2.2,1.4-3.5,1.4c-1.3,0-2.6-0.5-3.5-1.4C85.8,23.8,85.2,22.6,85.2,21.3
				 M93.1,21.3L93.1,21.3c0-0.4-0.1-0.8-0.2-1.2c-0.1-0.4-0.4-0.7-0.6-1c-0.3-0.3-0.6-0.5-1-0.6c-0.4-0.2-0.7-0.2-1.1-0.2
				c-0.4,0-0.8,0.1-1.1,0.2c-0.4,0.1-0.7,0.4-0.9,0.6c-0.3,0.3-0.5,0.6-0.6,1c-0.1,0.4-0.2,0.7-0.2,1.1v0c0,0.4,0.1,0.8,0.2,1.1
				c0.1,0.4,0.4,0.7,0.6,1c0.3,0.3,0.6,0.5,1,0.7c0.4,0.2,0.7,0.2,1.1,0.2c0.4,0,0.8-0.1,1.1-0.2c0.4-0.1,0.7-0.4,0.9-0.6
				c0.3-0.3,0.5-0.6,0.6-1C93.1,22,93.1,21.7,93.1,21.3"/>
			<path class="st4" d="M85.2,21.3L85.2,21.3c0-1.3,0.6-2.6,1.5-3.5c0.9-0.9,2.2-1.4,3.5-1.4c1.3,0,2.6,0.5,3.5,1.4
				c1,0.9,1.5,2.1,1.6,3.5v0c0,1.3-0.6,2.5-1.5,3.5c-0.9,0.9-2.2,1.4-3.5,1.4c-1.3,0-2.6-0.5-3.5-1.4C85.8,23.8,85.2,22.6,85.2,21.3
				 M93.1,21.3L93.1,21.3c0-0.4-0.1-0.8-0.2-1.2c-0.1-0.4-0.4-0.7-0.6-1c-0.3-0.3-0.6-0.5-1-0.6c-0.4-0.2-0.7-0.2-1.1-0.2
				c-0.4,0-0.8,0.1-1.1,0.2c-0.4,0.1-0.7,0.4-0.9,0.6c-0.3,0.3-0.5,0.6-0.6,1c-0.1,0.4-0.2,0.7-0.2,1.1v0c0,0.4,0.1,0.8,0.2,1.1
				c0.1,0.4,0.4,0.7,0.6,1c0.3,0.3,0.6,0.5,1,0.7c0.4,0.2,0.7,0.2,1.1,0.2c0.4,0,0.8-0.1,1.1-0.2c0.4-0.1,0.7-0.4,0.9-0.6
				c0.3-0.3,0.5-0.6,0.6-1C93.1,22,93.1,21.7,93.1,21.3"/>
			<path class="st4" d="M85.2,21.3L85.2,21.3c0-1.3,0.6-2.6,1.5-3.5c0.9-0.9,2.2-1.4,3.5-1.4c1.3,0,2.6,0.5,3.5,1.4
				c1,0.9,1.5,2.1,1.6,3.5v0c0,1.3-0.6,2.5-1.5,3.5c-0.9,0.9-2.2,1.4-3.5,1.4c-1.3,0-2.6-0.5-3.5-1.4C85.8,23.8,85.2,22.6,85.2,21.3
				 M93.1,21.3L93.1,21.3c0-0.4-0.1-0.8-0.2-1.2c-0.1-0.4-0.4-0.7-0.6-1c-0.3-0.3-0.6-0.5-1-0.6c-0.4-0.2-0.7-0.2-1.1-0.2
				c-0.4,0-0.8,0.1-1.1,0.2c-0.4,0.1-0.7,0.4-0.9,0.6c-0.3,0.3-0.5,0.6-0.6,1c-0.1,0.4-0.2,0.7-0.2,1.1v0c0,0.4,0.1,0.8,0.2,1.1
				c0.1,0.4,0.4,0.7,0.6,1c0.3,0.3,0.6,0.5,1,0.7c0.4,0.2,0.7,0.2,1.1,0.2c0.4,0,0.8-0.1,1.1-0.2c0.4-0.1,0.7-0.4,0.9-0.6
				c0.3-0.3,0.5-0.6,0.6-1C93.1,22,93.1,21.7,93.1,21.3"/>
			<path class="st4" d="M85.2,21.3L85.2,21.3c0-1.3,0.6-2.6,1.5-3.5c0.9-0.9,2.2-1.4,3.5-1.4c1.3,0,2.6,0.5,3.5,1.4
				c1,0.9,1.5,2.1,1.6,3.5v0c0,1.3-0.6,2.5-1.5,3.5c-0.9,0.9-2.2,1.4-3.5,1.4c-1.3,0-2.6-0.5-3.5-1.4C85.8,23.8,85.2,22.6,85.2,21.3
				 M93.1,21.3L93.1,21.3c0-0.4-0.1-0.8-0.2-1.2c-0.1-0.4-0.4-0.7-0.6-1c-0.3-0.3-0.6-0.5-1-0.6c-0.4-0.2-0.7-0.2-1.1-0.2
				c-0.4,0-0.8,0.1-1.1,0.2c-0.4,0.1-0.7,0.4-0.9,0.6c-0.3,0.3-0.5,0.6-0.6,1c-0.1,0.4-0.2,0.7-0.2,1.1v0c0,0.4,0.1,0.8,0.2,1.1
				c0.1,0.4,0.4,0.7,0.6,1c0.3,0.3,0.6,0.5,1,0.7c0.4,0.2,0.7,0.2,1.1,0.2c0.4,0,0.8-0.1,1.1-0.2c0.4-0.1,0.7-0.4,0.9-0.6
				c0.3-0.3,0.5-0.6,0.6-1C93.1,22,93.1,21.7,93.1,21.3"/>
			<path class="st5" d="M85.2,21.3L85.2,21.3c0-1.3,0.6-2.6,1.5-3.5c0.9-0.9,2.2-1.4,3.5-1.4c1.3,0,2.6,0.5,3.5,1.4
				c1,0.9,1.5,2.1,1.6,3.5v0c0,1.3-0.6,2.5-1.5,3.5c-0.9,0.9-2.2,1.4-3.5,1.4c-1.3,0-2.6-0.5-3.5-1.4C85.8,23.8,85.2,22.6,85.2,21.3
				 M93.1,21.3L93.1,21.3c0-0.4-0.1-0.8-0.2-1.2c-0.1-0.4-0.4-0.7-0.6-1c-0.3-0.3-0.6-0.5-1-0.6c-0.4-0.2-0.7-0.2-1.1-0.2
				c-0.4,0-0.8,0.1-1.1,0.2c-0.4,0.1-0.7,0.4-0.9,0.6c-0.3,0.3-0.5,0.6-0.6,1c-0.1,0.4-0.2,0.7-0.2,1.1v0c0,0.4,0.1,0.8,0.2,1.1
				c0.1,0.4,0.4,0.7,0.6,1c0.3,0.3,0.6,0.5,1,0.7c0.4,0.2,0.7,0.2,1.1,0.2c0.4,0,0.8-0.1,1.1-0.2c0.4-0.1,0.7-0.4,0.9-0.6
				c0.3-0.3,0.5-0.6,0.6-1C93.1,22,93.1,21.7,93.1,21.3"/>
			<path class="st3" d="M100.7,16.5h1.9l4.5,5.8v-5.8h2.1V26h-1.8l-4.6-6v6h-2.1V16.5z"/>
			<path class="st4" d="M100.7,16.5h1.9l4.5,5.8v-5.8h2.1V26h-1.8l-4.6-6v6h-2.1V16.5z"/>
			<path class="st4" d="M100.7,16.5h1.9l4.5,5.8v-5.8h2.1V26h-1.8l-4.6-6v6h-2.1V16.5z"/>
			<path class="st4" d="M100.7,16.5h1.9l4.5,5.8v-5.8h2.1V26h-1.8l-4.6-6v6h-2.1V16.5z"/>
			<path class="st4" d="M100.7,16.5h1.9l4.5,5.8v-5.8h2.1V26h-1.8l-4.6-6v6h-2.1V16.5z"/>
			<path class="st5" d="M100.7,16.5h1.9l4.5,5.8v-5.8h2.1V26h-1.8l-4.6-6v6h-2.1V16.5z"/>
			<path class="st3" d="M115,16.5h2.1v7.6h4.8V26H115V16.5z"/>
			<path class="st4" d="M115,16.5h2.1v7.6h4.8V26H115V16.5z"/>
			<path class="st4" d="M115,16.5h2.1v7.6h4.8V26H115V16.5z"/>
			<path class="st4" d="M115,16.5h2.1v7.6h4.8V26H115V16.5z"/>
			<path class="st4" d="M115,16.5h2.1v7.6h4.8V26H115V16.5z"/>
			<path class="st5" d="M115,16.5h2.1v7.6h4.8V26H115V16.5z"/>
			<path class="st3" d="M129.2,16.5h-2.1V26h2.1V16.5z"/>
			<path class="st4" d="M129.2,16.5h-2.1V26h2.1V16.5z"/>
			<path class="st4" d="M129.2,16.5h-2.1V26h2.1V16.5z"/>
			<path class="st4" d="M129.2,16.5h-2.1V26h2.1V16.5z"/>
			<path class="st4" d="M129.2,16.5h-2.1V26h2.1V16.5z"/>
			<path class="st5" d="M129.2,16.5h-2.1V26h2.1V16.5z"/>
			<path class="st3" d="M135.1,16.5h1.9l4.5,5.8v-5.8h2.1V26h-1.8l-4.6-6v6h-2.1V16.5z"/>
			<path class="st4" d="M135.1,16.5h1.9l4.5,5.8v-5.8h2.1V26h-1.8l-4.6-6v6h-2.1V16.5z"/>
			<path class="st4" d="M135.1,16.5h1.9l4.5,5.8v-5.8h2.1V26h-1.8l-4.6-6v6h-2.1V16.5z"/>
			<path class="st4" d="M135.1,16.5h1.9l4.5,5.8v-5.8h2.1V26h-1.8l-4.6-6v6h-2.1V16.5z"/>
			<path class="st4" d="M135.1,16.5h1.9l4.5,5.8v-5.8h2.1V26h-1.8l-4.6-6v6h-2.1V16.5z"/>
			<path class="st5" d="M135.1,16.5h1.9l4.5,5.8v-5.8h2.1V26h-1.8l-4.6-6v6h-2.1V16.5z"/>
			<path class="st3" d="M149.4,16.5h7.2v1.9h-5.1v1.9h4.5v1.9h-4.5v2h5.2V26h-7.3V16.5z"/>
			<path class="st4" d="M149.4,16.5h7.2v1.9h-5.1v1.9h4.5v1.9h-4.5v2h5.2V26h-7.3V16.5z"/>
			<path class="st4" d="M149.4,16.5h7.2v1.9h-5.1v1.9h4.5v1.9h-4.5v2h5.2V26h-7.3V16.5z"/>
			<path class="st4" d="M149.4,16.5h7.2v1.9h-5.1v1.9h4.5v1.9h-4.5v2h5.2V26h-7.3V16.5z"/>
			<path class="st4" d="M149.4,16.5h7.2v1.9h-5.1v1.9h4.5v1.9h-4.5v2h5.2V26h-7.3V16.5z"/>
			<path class="st5" d="M149.4,16.5h7.2v1.9h-5.1v1.9h4.5v1.9h-4.5v2h5.2V26h-7.3V16.5z"/>
			<path class="st3" d="M85.6,32.8h2.3l2.5,4l2.5-4h2.3v9.5H93V36l-2.7,4h-0.1l-2.7-4v6.1h-2.1V32.8z"/>
			<path class="st4" d="M85.6,32.8h2.3l2.5,4l2.5-4h2.3v9.5H93V36l-2.7,4h-0.1l-2.7-4v6.1h-2.1V32.8z"/>
			<path class="st4" d="M85.6,32.8h2.3l2.5,4l2.5-4h2.3v9.5H93V36l-2.7,4h-0.1l-2.7-4v6.1h-2.1V32.8z"/>
			<path class="st4" d="M85.6,32.8h2.3l2.5,4l2.5-4h2.3v9.5H93V36l-2.7,4h-0.1l-2.7-4v6.1h-2.1V32.8z"/>
			<path class="st4" d="M85.6,32.8h2.3l2.5,4l2.5-4h2.3v9.5H93V36l-2.7,4h-0.1l-2.7-4v6.1h-2.1V32.8z"/>
			<path class="st5" d="M85.6,32.8h2.3l2.5,4l2.5-4h2.3v9.5H93V36l-2.7,4h-0.1l-2.7-4v6.1h-2.1V32.8z"/>
			<path class="st3" d="M104.2,32.7h1.9l4.1,9.5h-2.2l-0.9-2.1h-4l-0.9,2.1h-2.1L104.2,32.7z M106.4,38.3l-1.3-3.1l-1.3,3.1H106.4z"
				/>
			<path class="st4" d="M104.2,32.7h1.9l4.1,9.5h-2.2l-0.9-2.1h-4l-0.9,2.1h-2.1L104.2,32.7z M106.4,38.3l-1.3-3.1l-1.3,3.1H106.4z"
				/>
			<path class="st4" d="M104.2,32.7h1.9l4.1,9.5h-2.2l-0.9-2.1h-4l-0.9,2.1h-2.1L104.2,32.7z M106.4,38.3l-1.3-3.1l-1.3,3.1H106.4z"
				/>
			<path class="st4" d="M104.2,32.7h1.9l4.1,9.5h-2.2l-0.9-2.1h-4l-0.9,2.1h-2.1L104.2,32.7z M106.4,38.3l-1.3-3.1l-1.3,3.1H106.4z"
				/>
			<path class="st4" d="M104.2,32.7h1.9l4.1,9.5h-2.2l-0.9-2.1h-4l-0.9,2.1h-2.1L104.2,32.7z M106.4,38.3l-1.3-3.1l-1.3,3.1H106.4z"
				/>
			<path class="st5" d="M104.2,32.7h1.9l4.1,9.5h-2.2l-0.9-2.1h-4l-0.9,2.1h-2.1L104.2,32.7z M106.4,38.3l-1.3-3.1l-1.3,3.1H106.4z"
				/>
			<path class="st3" d="M115.2,32.8h4.4c0.5,0,1,0,1.5,0.2c0.5,0.2,0.9,0.4,1.3,0.8c0.3,0.3,0.5,0.6,0.6,1c0.1,0.4,0.2,0.8,0.2,1.2
				v0c0,0.6-0.2,1.3-0.5,1.8c-0.4,0.5-0.9,0.9-1.5,1.1l2.3,3.4H121l-2-3h-1.7v3h-2.1V32.8z M119.5,37.4c1,0,1.6-0.5,1.6-1.3v0
				c0-0.9-0.6-1.4-1.7-1.4h-2.1v2.7L119.5,37.4z"/>
			<path class="st4" d="M115.2,32.8h4.4c0.5,0,1,0,1.5,0.2c0.5,0.2,0.9,0.4,1.3,0.8c0.3,0.3,0.5,0.6,0.6,1c0.1,0.4,0.2,0.8,0.2,1.2
				v0c0,0.6-0.2,1.3-0.5,1.8c-0.4,0.5-0.9,0.9-1.5,1.1l2.3,3.4H121l-2-3h-1.7v3h-2.1V32.8z M119.5,37.4c1,0,1.6-0.5,1.6-1.3v0
				c0-0.9-0.6-1.4-1.7-1.4h-2.1v2.7L119.5,37.4z"/>
			<path class="st4" d="M115.2,32.8h4.4c0.5,0,1,0,1.5,0.2c0.5,0.2,0.9,0.4,1.3,0.8c0.3,0.3,0.5,0.6,0.6,1c0.1,0.4,0.2,0.8,0.2,1.2
				v0c0,0.6-0.2,1.3-0.5,1.8c-0.4,0.5-0.9,0.9-1.5,1.1l2.3,3.4H121l-2-3h-1.7v3h-2.1V32.8z M119.5,37.4c1,0,1.6-0.5,1.6-1.3v0
				c0-0.9-0.6-1.4-1.7-1.4h-2.1v2.7L119.5,37.4z"/>
			<path class="st4" d="M115.2,32.8h4.4c0.5,0,1,0,1.5,0.2c0.5,0.2,0.9,0.4,1.3,0.8c0.3,0.3,0.5,0.6,0.6,1c0.1,0.4,0.2,0.8,0.2,1.2
				v0c0,0.6-0.2,1.3-0.5,1.8c-0.4,0.5-0.9,0.9-1.5,1.1l2.3,3.4H121l-2-3h-1.7v3h-2.1V32.8z M119.5,37.4c1,0,1.6-0.5,1.6-1.3v0
				c0-0.9-0.6-1.4-1.7-1.4h-2.1v2.7L119.5,37.4z"/>
			<path class="st4" d="M115.2,32.8h4.4c0.5,0,1,0,1.5,0.2c0.5,0.2,0.9,0.4,1.3,0.8c0.3,0.3,0.5,0.6,0.6,1c0.1,0.4,0.2,0.8,0.2,1.2
				v0c0,0.6-0.2,1.3-0.5,1.8c-0.4,0.5-0.9,0.9-1.5,1.1l2.3,3.4H121l-2-3h-1.7v3h-2.1V32.8z M119.5,37.4c1,0,1.6-0.5,1.6-1.3v0
				c0-0.9-0.6-1.4-1.7-1.4h-2.1v2.7L119.5,37.4z"/>
			<path class="st5" d="M115.2,32.8h4.4c0.5,0,1,0,1.5,0.2c0.5,0.2,0.9,0.4,1.3,0.8c0.3,0.3,0.5,0.6,0.6,1c0.1,0.4,0.2,0.8,0.2,1.2
				v0c0,0.6-0.2,1.3-0.5,1.8c-0.4,0.5-0.9,0.9-1.5,1.1l2.3,3.4H121l-2-3h-1.7v3h-2.1V32.8z M119.5,37.4c1,0,1.6-0.5,1.6-1.3v0
				c0-0.9-0.6-1.4-1.7-1.4h-2.1v2.7L119.5,37.4z"/>
			<path class="st3" d="M128.6,32.8h2.1v4.1l3.9-4.1h2.5l-3.9,4l4.1,5.5h-2.5l-3-4l-1.1,1.1v2.9h-2.1V32.8z"/>
			<path class="st4" d="M128.6,32.8h2.1v4.1l3.9-4.1h2.5l-3.9,4l4.1,5.5h-2.5l-3-4l-1.1,1.1v2.9h-2.1V32.8z"/>
			<path class="st4" d="M128.6,32.8h2.1v4.1l3.9-4.1h2.5l-3.9,4l4.1,5.5h-2.5l-3-4l-1.1,1.1v2.9h-2.1V32.8z"/>
			<path class="st4" d="M128.6,32.8h2.1v4.1l3.9-4.1h2.5l-3.9,4l4.1,5.5h-2.5l-3-4l-1.1,1.1v2.9h-2.1V32.8z"/>
			<path class="st4" d="M128.6,32.8h2.1v4.1l3.9-4.1h2.5l-3.9,4l4.1,5.5h-2.5l-3-4l-1.1,1.1v2.9h-2.1V32.8z"/>
			<path class="st5" d="M128.6,32.8h2.1v4.1l3.9-4.1h2.5l-3.9,4l4.1,5.5h-2.5l-3-4l-1.1,1.1v2.9h-2.1V32.8z"/>
			<path class="st3" d="M142.1,32.8h7.2v1.9h-5.1v1.9h4.5v1.9h-4.5v2h5.2v1.9h-7.3V32.8z"/>
			<path class="st4" d="M142.1,32.8h7.2v1.9h-5.1v1.9h4.5v1.9h-4.5v2h5.2v1.9h-7.3V32.8z"/>
			<path class="st4" d="M142.1,32.8h7.2v1.9h-5.1v1.9h4.5v1.9h-4.5v2h5.2v1.9h-7.3V32.8z"/>
			<path class="st4" d="M142.1,32.8h7.2v1.9h-5.1v1.9h4.5v1.9h-4.5v2h5.2v1.9h-7.3V32.8z"/>
			<path class="st4" d="M142.1,32.8h7.2v1.9h-5.1v1.9h4.5v1.9h-4.5v2h5.2v1.9h-7.3V32.8z"/>
			<path class="st5" d="M142.1,32.8h7.2v1.9h-5.1v1.9h4.5v1.9h-4.5v2h5.2v1.9h-7.3V32.8z"/>
			<path class="st3" d="M157,34.7h-2.9v-1.9h7.9v1.9h-2.9v7.6H157V34.7z"/>
			<path class="st4" d="M157,34.7h-2.9v-1.9h7.9v1.9h-2.9v7.6H157V34.7z"/>
			<path class="st4" d="M157,34.7h-2.9v-1.9h7.9v1.9h-2.9v7.6H157V34.7z"/>
			<path class="st4" d="M157,34.7h-2.9v-1.9h7.9v1.9h-2.9v7.6H157V34.7z"/>
			<path class="st4" d="M157,34.7h-2.9v-1.9h7.9v1.9h-2.9v7.6H157V34.7z"/>
			<path class="st5" d="M157,34.7h-2.9v-1.9h7.9v1.9h-2.9v7.6H157V34.7z"/>
			<path class="st3" d="M169.3,32.8h-2.1v9.5h2.1V32.8z"/>
			<path class="st4" d="M169.3,32.8h-2.1v9.5h2.1V32.8z"/>
			<path class="st4" d="M169.3,32.8h-2.1v9.5h2.1V32.8z"/>
			<path class="st4" d="M169.3,32.8h-2.1v9.5h2.1V32.8z"/>
			<path class="st4" d="M169.3,32.8h-2.1v9.5h2.1V32.8z"/>
			<path class="st5" d="M169.3,32.8h-2.1v9.5h2.1V32.8z"/>
			<path class="st3" d="M175.2,32.8h1.9l4.5,5.8v-5.8h2.1v9.5h-1.8l-4.6-6v6h-2.1V32.8z"/>
			<path class="st4" d="M175.2,32.8h1.9l4.5,5.8v-5.8h2.1v9.5h-1.8l-4.6-6v6h-2.1V32.8z"/>
			<path class="st4" d="M175.2,32.8h1.9l4.5,5.8v-5.8h2.1v9.5h-1.8l-4.6-6v6h-2.1V32.8z"/>
			<path class="st4" d="M175.2,32.8h1.9l4.5,5.8v-5.8h2.1v9.5h-1.8l-4.6-6v6h-2.1V32.8z"/>
			<path class="st4" d="M175.2,32.8h1.9l4.5,5.8v-5.8h2.1v9.5h-1.8l-4.6-6v6h-2.1V32.8z"/>
			<path class="st5" d="M175.2,32.8h1.9l4.5,5.8v-5.8h2.1v9.5h-1.8l-4.6-6v6h-2.1V32.8z"/>
			<path class="st3" d="M189.1,37.5L189.1,37.5c0-0.7,0.1-1.3,0.4-1.9c0.3-0.6,0.6-1.1,1.1-1.6c0.5-0.5,1-0.8,1.6-1.1
				c0.6-0.2,1.3-0.4,1.9-0.3c1.4-0.1,2.7,0.4,3.8,1.3l-1.3,1.6c-0.7-0.6-1.6-1-2.5-1c-0.8,0-1.5,0.4-2,0.9c-0.5,0.6-0.8,1.3-0.8,2v0
				c0,0.4,0,0.8,0.2,1.1c0.1,0.4,0.3,0.7,0.6,1c0.3,0.3,0.6,0.5,1,0.7c0.4,0.2,0.8,0.2,1.1,0.2c0.7,0,1.4-0.2,2-0.6v-1.4h-2.1v-1.8
				h4.1v4.1c-1.1,1-2.6,1.5-4.1,1.5c-0.7,0-1.3-0.1-1.9-0.3c-0.6-0.2-1.2-0.6-1.7-1c-0.5-0.5-0.8-1-1.1-1.6
				C189.2,38.8,189.1,38.2,189.1,37.5"/>
			<path class="st4" d="M189.1,37.5L189.1,37.5c0-0.7,0.1-1.3,0.4-1.9c0.3-0.6,0.6-1.1,1.1-1.6c0.5-0.5,1-0.8,1.6-1.1
				c0.6-0.2,1.3-0.4,1.9-0.3c1.4-0.1,2.7,0.4,3.8,1.3l-1.3,1.6c-0.7-0.6-1.6-1-2.5-1c-0.8,0-1.5,0.4-2,0.9c-0.5,0.6-0.8,1.3-0.8,2v0
				c0,0.4,0,0.8,0.2,1.1c0.1,0.4,0.3,0.7,0.6,1c0.3,0.3,0.6,0.5,1,0.7c0.4,0.2,0.8,0.2,1.1,0.2c0.7,0,1.4-0.2,2-0.6v-1.4h-2.1v-1.8
				h4.1v4.1c-1.1,1-2.6,1.5-4.1,1.5c-0.7,0-1.3-0.1-1.9-0.3c-0.6-0.2-1.2-0.6-1.7-1c-0.5-0.5-0.8-1-1.1-1.6
				C189.2,38.8,189.1,38.2,189.1,37.5"/>
			<path class="st4" d="M189.1,37.5L189.1,37.5c0-0.7,0.1-1.3,0.4-1.9c0.3-0.6,0.6-1.1,1.1-1.6c0.5-0.5,1-0.8,1.6-1.1
				c0.6-0.2,1.3-0.4,1.9-0.3c1.4-0.1,2.7,0.4,3.8,1.3l-1.3,1.6c-0.7-0.6-1.6-1-2.5-1c-0.8,0-1.5,0.4-2,0.9c-0.5,0.6-0.8,1.3-0.8,2v0
				c0,0.4,0,0.8,0.2,1.1c0.1,0.4,0.3,0.7,0.6,1c0.3,0.3,0.6,0.5,1,0.7c0.4,0.2,0.8,0.2,1.1,0.2c0.7,0,1.4-0.2,2-0.6v-1.4h-2.1v-1.8
				h4.1v4.1c-1.1,1-2.6,1.5-4.1,1.5c-0.7,0-1.3-0.1-1.9-0.3c-0.6-0.2-1.2-0.6-1.7-1c-0.5-0.5-0.8-1-1.1-1.6
				C189.2,38.8,189.1,38.2,189.1,37.5"/>
			<path class="st4" d="M189.1,37.5L189.1,37.5c0-0.7,0.1-1.3,0.4-1.9c0.3-0.6,0.6-1.1,1.1-1.6c0.5-0.5,1-0.8,1.6-1.1
				c0.6-0.2,1.3-0.4,1.9-0.3c1.4-0.1,2.7,0.4,3.8,1.3l-1.3,1.6c-0.7-0.6-1.6-1-2.5-1c-0.8,0-1.5,0.4-2,0.9c-0.5,0.6-0.8,1.3-0.8,2v0
				c0,0.4,0,0.8,0.2,1.1c0.1,0.4,0.3,0.7,0.6,1c0.3,0.3,0.6,0.5,1,0.7c0.4,0.2,0.8,0.2,1.1,0.2c0.7,0,1.4-0.2,2-0.6v-1.4h-2.1v-1.8
				h4.1v4.1c-1.1,1-2.6,1.5-4.1,1.5c-0.7,0-1.3-0.1-1.9-0.3c-0.6-0.2-1.2-0.6-1.7-1c-0.5-0.5-0.8-1-1.1-1.6
				C189.2,38.8,189.1,38.2,189.1,37.5"/>
			<path class="st4" d="M189.1,37.5L189.1,37.5c0-0.7,0.1-1.3,0.4-1.9c0.3-0.6,0.6-1.1,1.1-1.6c0.5-0.5,1-0.8,1.6-1.1
				c0.6-0.2,1.3-0.4,1.9-0.3c1.4-0.1,2.7,0.4,3.8,1.3l-1.3,1.6c-0.7-0.6-1.6-1-2.5-1c-0.8,0-1.5,0.4-2,0.9c-0.5,0.6-0.8,1.3-0.8,2v0
				c0,0.4,0,0.8,0.2,1.1c0.1,0.4,0.3,0.7,0.6,1c0.3,0.3,0.6,0.5,1,0.7c0.4,0.2,0.8,0.2,1.1,0.2c0.7,0,1.4-0.2,2-0.6v-1.4h-2.1v-1.8
				h4.1v4.1c-1.1,1-2.6,1.5-4.1,1.5c-0.7,0-1.3-0.1-1.9-0.3c-0.6-0.2-1.2-0.6-1.7-1c-0.5-0.5-0.8-1-1.1-1.6
				C189.2,38.8,189.1,38.2,189.1,37.5"/>
			<path class="st5" d="M189.1,37.5L189.1,37.5c0-0.7,0.1-1.3,0.4-1.9c0.3-0.6,0.6-1.1,1.1-1.6c0.5-0.5,1-0.8,1.6-1.1
				c0.6-0.2,1.3-0.4,1.9-0.3c1.4-0.1,2.7,0.4,3.8,1.3l-1.3,1.6c-0.7-0.6-1.6-1-2.5-1c-0.8,0-1.5,0.4-2,0.9c-0.5,0.6-0.8,1.3-0.8,2v0
				c0,0.4,0,0.8,0.2,1.1c0.1,0.4,0.3,0.7,0.6,1c0.3,0.3,0.6,0.5,1,0.7c0.4,0.2,0.8,0.2,1.1,0.2c0.7,0,1.4-0.2,2-0.6v-1.4h-2.1v-1.8
				h4.1v4.1c-1.1,1-2.6,1.5-4.1,1.5c-0.7,0-1.3-0.1-1.9-0.3c-0.6-0.2-1.2-0.6-1.7-1c-0.5-0.5-0.8-1-1.1-1.6
				C189.2,38.8,189.1,38.2,189.1,37.5"/>
			<path class="st3" d="M84.6,2.2V1.7H72.3c-5,0-7.3,0.5-10.7,4c-5.7,5.8-8.3,9.1-15.8,19.6L43.1,29c4.9,3,7.3,7.2,7.3,13.2
				c0,0.1,0,0.1,0,0.2c3.9,5.7,8.2,11.1,12.9,16.2c2.9,2.8,6.7,4.4,10.6,4.5c5.6,0,8.3-2.2,10.2-9.1c-4.4-1-6-2.3-10.5-6.9
				c-5-5.2-9-11.3-13.2-17.1C66.7,21.6,76.9,9.5,84.6,2.2z"/>
			<path class="st4" d="M84.6,2.2V1.7H72.3c-5,0-7.3,0.5-10.7,4c-5.7,5.8-8.3,9.1-15.8,19.6L43.1,29c4.9,3,7.3,7.2,7.3,13.2
				c0,0.1,0,0.1,0,0.2c3.9,5.7,8.2,11.1,12.9,16.2c2.9,2.8,6.7,4.4,10.6,4.5c5.6,0,8.3-2.2,10.2-9.1c-4.4-1-6-2.3-10.5-6.9
				c-5-5.2-9-11.3-13.2-17.1C66.7,21.6,76.9,9.5,84.6,2.2z"/>
			<path class="st4" d="M84.6,2.2V1.7H72.3c-5,0-7.3,0.5-10.7,4c-5.7,5.8-8.3,9.1-15.8,19.6L43.1,29c4.9,3,7.3,7.2,7.3,13.2
				c0,0.1,0,0.1,0,0.2c3.9,5.7,8.2,11.1,12.9,16.2c2.9,2.8,6.7,4.4,10.6,4.5c5.6,0,8.3-2.2,10.2-9.1c-4.4-1-6-2.3-10.5-6.9
				c-5-5.2-9-11.3-13.2-17.1C66.7,21.6,76.9,9.5,84.6,2.2z"/>
			<path class="st4" d="M84.6,2.2V1.7H72.3c-5,0-7.3,0.5-10.7,4c-5.7,5.8-8.3,9.1-15.8,19.6L43.1,29c4.9,3,7.3,7.2,7.3,13.2
				c0,0.1,0,0.1,0,0.2c3.9,5.7,8.2,11.1,12.9,16.2c2.9,2.8,6.7,4.4,10.6,4.5c5.6,0,8.3-2.2,10.2-9.1c-4.4-1-6-2.3-10.5-6.9
				c-5-5.2-9-11.3-13.2-17.1C66.7,21.6,76.9,9.5,84.6,2.2z"/>
			<path class="st4" d="M84.6,2.2V1.7H72.3c-5,0-7.3,0.5-10.7,4c-5.7,5.8-8.3,9.1-15.8,19.6L43.1,29c4.9,3,7.3,7.2,7.3,13.2
				c0,0.1,0,0.1,0,0.2c3.9,5.7,8.2,11.1,12.9,16.2c2.9,2.8,6.7,4.4,10.6,4.5c5.6,0,8.3-2.2,10.2-9.1c-4.4-1-6-2.3-10.5-6.9
				c-5-5.2-9-11.3-13.2-17.1C66.7,21.6,76.9,9.5,84.6,2.2z"/>
			<path class="st5" d="M84.6,2.2V1.7H72.3c-5,0-7.3,0.5-10.7,4c-5.7,5.8-8.3,9.1-15.8,19.6L43.1,29c4.9,3,7.3,7.2,7.3,13.2
				c0,0.1,0,0.1,0,0.2c3.9,5.7,8.2,11.1,12.9,16.2c2.9,2.8,6.7,4.4,10.6,4.5c5.6,0,8.3-2.2,10.2-9.1c-4.4-1-6-2.3-10.5-6.9
				c-5-5.2-9-11.3-13.2-17.1C66.7,21.6,76.9,9.5,84.6,2.2z"/>
			<path class="st3" d="M23.1,63.7c-13.5,0-20.7-5.1-20.7-13.8v-6h0.5c3.8,3.9,11.8,6.1,18.8,6.1c7.8,0,10.3-1.8,10.3-5.9
				c0-3.7-3.4-4.9-12.7-6.8C6,34.8,0.8,30,0.8,20.8C0.8,10,10.7,0.3,26.2,0.3c15.1,0,20.8,6.8,20.8,13v6.4h-0.4
				c-4.1-4-11.4-5.8-17.8-5.8c-8.3,0-11.2,2.2-11.2,5.6c0,2.7,1.2,4.2,12.5,6.5c12.6,2.5,18.6,7.6,18.6,17
				C48.7,55.6,39.4,63.7,23.1,63.7"/>
			<path class="st4" d="M23.1,63.7c-13.5,0-20.7-5.1-20.7-13.8v-6h0.5c3.8,3.9,11.8,6.1,18.8,6.1c7.8,0,10.3-1.8,10.3-5.9
				c0-3.7-3.4-4.9-12.7-6.8C6,34.8,0.8,30,0.8,20.8C0.8,10,10.7,0.3,26.2,0.3c15.1,0,20.8,6.8,20.8,13v6.4h-0.4
				c-4.1-4-11.4-5.8-17.8-5.8c-8.3,0-11.2,2.2-11.2,5.6c0,2.7,1.2,4.2,12.5,6.5c12.6,2.5,18.6,7.6,18.6,17
				C48.7,55.6,39.4,63.7,23.1,63.7"/>
			<path class="st4" d="M23.1,63.7c-13.5,0-20.7-5.1-20.7-13.8v-6h0.5c3.8,3.9,11.8,6.1,18.8,6.1c7.8,0,10.3-1.8,10.3-5.9
				c0-3.7-3.4-4.9-12.7-6.8C6,34.8,0.8,30,0.8,20.8C0.8,10,10.7,0.3,26.2,0.3c15.1,0,20.8,6.8,20.8,13v6.4h-0.4
				c-4.1-4-11.4-5.8-17.8-5.8c-8.3,0-11.2,2.2-11.2,5.6c0,2.7,1.2,4.2,12.5,6.5c12.6,2.5,18.6,7.6,18.6,17
				C48.7,55.6,39.4,63.7,23.1,63.7"/>
			<path class="st4" d="M23.1,63.7c-13.5,0-20.7-5.1-20.7-13.8v-6h0.5c3.8,3.9,11.8,6.1,18.8,6.1c7.8,0,10.3-1.8,10.3-5.9
				c0-3.7-3.4-4.9-12.7-6.8C6,34.8,0.8,30,0.8,20.8C0.8,10,10.7,0.3,26.2,0.3c15.1,0,20.8,6.8,20.8,13v6.4h-0.4
				c-4.1-4-11.4-5.8-17.8-5.8c-8.3,0-11.2,2.2-11.2,5.6c0,2.7,1.2,4.2,12.5,6.5c12.6,2.5,18.6,7.6,18.6,17
				C48.7,55.6,39.4,63.7,23.1,63.7"/>
			<path class="st4" d="M23.1,63.7c-13.5,0-20.7-5.1-20.7-13.8v-6h0.5c3.8,3.9,11.8,6.1,18.8,6.1c7.8,0,10.3-1.8,10.3-5.9
				c0-3.7-3.4-4.9-12.7-6.8C6,34.8,0.8,30,0.8,20.8C0.8,10,10.7,0.3,26.2,0.3c15.1,0,20.8,6.8,20.8,13v6.4h-0.4
				c-4.1-4-11.4-5.8-17.8-5.8c-8.3,0-11.2,2.2-11.2,5.6c0,2.7,1.2,4.2,12.5,6.5c12.6,2.5,18.6,7.6,18.6,17
				C48.7,55.6,39.4,63.7,23.1,63.7"/>
			<path class="st5" d="M23.1,63.7c-13.5,0-20.7-5.1-20.7-13.8v-6h0.5c3.8,3.9,11.8,6.1,18.8,6.1c7.8,0,10.3-1.8,10.3-5.9
				c0-3.7-3.4-4.9-12.7-6.8C6,34.8,0.8,30,0.8,20.8C0.8,10,10.7,0.3,26.2,0.3c15.1,0,20.8,6.8,20.8,13v6.4h-0.4
				c-4.1-4-11.4-5.8-17.8-5.8c-8.3,0-11.2,2.2-11.2,5.6c0,2.7,1.2,4.2,12.5,6.5c12.6,2.5,18.6,7.6,18.6,17
				C48.7,55.6,39.4,63.7,23.1,63.7"/>
		</g>
	</g>
</g>
</svg>
