<svg width="137" height="44" viewBox="0 0 137 44" fill="none" xmlns="http://www.w3.org/2000/svg">
<g clip-path="url(#clip0_104_925)">
<mask id="mask0_104_925" style="mask-type:luminance" maskUnits="userSpaceOnUse" x="0" y="0" width="137" height="44">
<path d="M137 0H0V44H137V0Z" fill="white"/>
</mask>
<g mask="url(#mask0_104_925)">
<path d="M58.5385 14.5397V14.5202C58.5647 13.6126 58.9463 12.7507 59.6024 12.117C60.2585 11.4833 61.1377 11.1275 62.0539 11.125C62.97 11.1225 63.8512 11.4734 64.5109 12.1034C65.1706 12.7335 65.557 13.5932 65.5884 14.5007V14.5188C65.5621 15.4264 65.1805 16.2883 64.5244 16.922C63.8683 17.5557 62.9891 17.9115 62.0729 17.914C61.1568 17.9165 60.2756 17.5656 59.6159 16.9356C58.9562 16.3055 58.5698 15.4458 58.5385 14.5383M64.0646 14.5383V14.5188C64.0736 14.2514 64.0283 13.9849 63.9314 13.7351C63.8346 13.4853 63.688 13.2574 63.5006 13.0649C63.3131 12.8723 63.0885 12.719 62.8401 12.6142C62.5917 12.5093 62.3246 12.4549 62.0546 12.4543C61.7866 12.4532 61.521 12.5059 61.2741 12.6092C61.0271 12.7126 60.8039 12.8645 60.6178 13.0558C60.4317 13.247 60.2867 13.4736 60.1915 13.722C60.0962 13.9703 60.0527 14.2352 60.0636 14.5007V14.5188C60.0539 14.7867 60.0987 15.0538 60.1953 15.3042C60.2918 15.5546 60.4382 15.7832 60.6258 15.9764C60.8133 16.1696 61.0381 16.3235 61.2868 16.4288C61.5355 16.5341 61.8031 16.5888 62.0736 16.5895C62.3417 16.5905 62.6073 16.5377 62.8542 16.4341C63.1012 16.3306 63.3244 16.1786 63.5105 15.9872C63.6965 15.7959 63.8415 15.5691 63.9368 15.3207C64.032 15.0723 64.0755 14.8073 64.0646 14.5418" fill="#44474C"/>
<path d="M58.5385 14.5397V14.5202C58.5647 13.6126 58.9463 12.7507 59.6024 12.117C60.2585 11.4833 61.1377 11.1275 62.0539 11.125C62.97 11.1225 63.8512 11.4734 64.5109 12.1034C65.1706 12.7335 65.557 13.5932 65.5884 14.5007V14.5188C65.5621 15.4264 65.1805 16.2883 64.5244 16.922C63.8683 17.5557 62.9891 17.9115 62.0729 17.914C61.1568 17.9165 60.2756 17.5656 59.6159 16.9356C58.9562 16.3055 58.5698 15.4458 58.5385 14.5383M64.0646 14.5383V14.5188C64.0736 14.2514 64.0283 13.9849 63.9314 13.7351C63.8346 13.4853 63.688 13.2574 63.5006 13.0649C63.3131 12.8723 63.0885 12.719 62.8401 12.6142C62.5917 12.5093 62.3246 12.4549 62.0546 12.4543C61.7866 12.4532 61.521 12.5059 61.2741 12.6092C61.0271 12.7126 60.8039 12.8645 60.6178 13.0558C60.4317 13.247 60.2867 13.4736 60.1915 13.722C60.0962 13.9703 60.0527 14.2352 60.0636 14.5007V14.5188C60.0539 14.7867 60.0987 15.0538 60.1953 15.3042C60.2918 15.5546 60.4382 15.7832 60.6258 15.9764C60.8133 16.1696 61.0381 16.3235 61.2868 16.4288C61.5355 16.5341 61.8031 16.5888 62.0736 16.5895C62.3417 16.5905 62.6073 16.5377 62.8542 16.4341C63.1012 16.3306 63.3244 16.1786 63.5105 15.9872C63.6965 15.7959 63.8415 15.5691 63.9368 15.3207C64.032 15.0723 64.0755 14.8073 64.0646 14.5418" fill="black" fill-opacity="0.2"/>
<path d="M58.5385 14.5397V14.5202C58.5647 13.6126 58.9463 12.7507 59.6024 12.117C60.2585 11.4833 61.1377 11.1275 62.0539 11.125C62.97 11.1225 63.8512 11.4734 64.5109 12.1034C65.1706 12.7335 65.557 13.5932 65.5884 14.5007V14.5188C65.5621 15.4264 65.1805 16.2883 64.5244 16.922C63.8683 17.5557 62.9891 17.9115 62.0729 17.914C61.1568 17.9165 60.2756 17.5656 59.6159 16.9356C58.9562 16.3055 58.5698 15.4458 58.5385 14.5383M64.0646 14.5383V14.5188C64.0736 14.2514 64.0283 13.9849 63.9314 13.7351C63.8346 13.4853 63.688 13.2574 63.5006 13.0649C63.3131 12.8723 63.0885 12.719 62.8401 12.6142C62.5917 12.5093 62.3246 12.4549 62.0546 12.4543C61.7866 12.4532 61.521 12.5059 61.2741 12.6092C61.0271 12.7126 60.8039 12.8645 60.6178 13.0558C60.4317 13.247 60.2867 13.4736 60.1915 13.722C60.0962 13.9703 60.0527 14.2352 60.0636 14.5007V14.5188C60.0539 14.7867 60.0987 15.0538 60.1953 15.3042C60.2918 15.5546 60.4382 15.7832 60.6258 15.9764C60.8133 16.1696 61.0381 16.3235 61.2868 16.4288C61.5355 16.5341 61.8031 16.5888 62.0736 16.5895C62.3417 16.5905 62.6073 16.5377 62.8542 16.4341C63.1012 16.3306 63.3244 16.1786 63.5105 15.9872C63.6965 15.7959 63.8415 15.5691 63.9368 15.3207C64.032 15.0723 64.0755 14.8073 64.0646 14.5418" fill="black" fill-opacity="0.2"/>
<path d="M58.5385 14.5397V14.5202C58.5647 13.6126 58.9463 12.7507 59.6024 12.117C60.2585 11.4833 61.1377 11.1275 62.0539 11.125C62.97 11.1225 63.8512 11.4734 64.5109 12.1034C65.1706 12.7335 65.557 13.5932 65.5884 14.5007V14.5188C65.5621 15.4264 65.1805 16.2883 64.5244 16.922C63.8683 17.5557 62.9891 17.9115 62.0729 17.914C61.1568 17.9165 60.2756 17.5656 59.6159 16.9356C58.9562 16.3055 58.5698 15.4458 58.5385 14.5383M64.0646 14.5383V14.5188C64.0736 14.2514 64.0283 13.9849 63.9314 13.7351C63.8346 13.4853 63.688 13.2574 63.5006 13.0649C63.3131 12.8723 63.0885 12.719 62.8401 12.6142C62.5917 12.5093 62.3246 12.4549 62.0546 12.4543C61.7866 12.4532 61.521 12.5059 61.2741 12.6092C61.0271 12.7126 60.8039 12.8645 60.6178 13.0558C60.4317 13.247 60.2867 13.4736 60.1915 13.722C60.0962 13.9703 60.0527 14.2352 60.0636 14.5007V14.5188C60.0539 14.7867 60.0987 15.0538 60.1953 15.3042C60.2918 15.5546 60.4382 15.7832 60.6258 15.9764C60.8133 16.1696 61.0381 16.3235 61.2868 16.4288C61.5355 16.5341 61.8031 16.5888 62.0736 16.5895C62.3417 16.5905 62.6073 16.5377 62.8542 16.4341C63.1012 16.3306 63.3244 16.1786 63.5105 15.9872C63.6965 15.7959 63.8415 15.5691 63.9368 15.3207C64.032 15.0723 64.0755 14.8073 64.0646 14.5418" fill="black" fill-opacity="0.2"/>
<path d="M58.5385 14.5397V14.5202C58.5647 13.6126 58.9463 12.7507 59.6024 12.117C60.2585 11.4833 61.1377 11.1275 62.0539 11.125C62.97 11.1225 63.8512 11.4734 64.5109 12.1034C65.1706 12.7335 65.557 13.5932 65.5884 14.5007V14.5188C65.5621 15.4264 65.1805 16.2883 64.5244 16.922C63.8683 17.5557 62.9891 17.9115 62.0729 17.914C61.1568 17.9165 60.2756 17.5656 59.6159 16.9356C58.9562 16.3055 58.5698 15.4458 58.5385 14.5383M64.0646 14.5383V14.5188C64.0736 14.2514 64.0283 13.9849 63.9314 13.7351C63.8346 13.4853 63.688 13.2574 63.5006 13.0649C63.3131 12.8723 63.0885 12.719 62.8401 12.6142C62.5917 12.5093 62.3246 12.4549 62.0546 12.4543C61.7866 12.4532 61.521 12.5059 61.2741 12.6092C61.0271 12.7126 60.8039 12.8645 60.6178 13.0558C60.4317 13.247 60.2867 13.4736 60.1915 13.722C60.0962 13.9703 60.0527 14.2352 60.0636 14.5007V14.5188C60.0539 14.7867 60.0987 15.0538 60.1953 15.3042C60.2918 15.5546 60.4382 15.7832 60.6258 15.9764C60.8133 16.1696 61.0381 16.3235 61.2868 16.4288C61.5355 16.5341 61.8031 16.5888 62.0736 16.5895C62.3417 16.5905 62.6073 16.5377 62.8542 16.4341C63.1012 16.3306 63.3244 16.1786 63.5105 15.9872C63.6965 15.7959 63.8415 15.5691 63.9368 15.3207C64.032 15.0723 64.0755 14.8073 64.0646 14.5418" fill="black" fill-opacity="0.2"/>
<path d="M58.5385 14.5397V14.5202C58.5647 13.6126 58.9463 12.7507 59.6024 12.117C60.2585 11.4833 61.1377 11.1275 62.0539 11.125C62.97 11.1225 63.8512 11.4734 64.5109 12.1034C65.1706 12.7335 65.557 13.5932 65.5884 14.5007V14.5188C65.5621 15.4264 65.1805 16.2883 64.5244 16.922C63.8683 17.5557 62.9891 17.9115 62.0729 17.914C61.1568 17.9165 60.2756 17.5656 59.6159 16.9356C58.9562 16.3055 58.5698 15.4458 58.5385 14.5383M64.0646 14.5383V14.5188C64.0736 14.2514 64.0283 13.9849 63.9314 13.7351C63.8346 13.4853 63.688 13.2574 63.5006 13.0649C63.3131 12.8723 63.0885 12.719 62.8401 12.6142C62.5917 12.5093 62.3246 12.4549 62.0546 12.4543C61.7866 12.4532 61.521 12.5059 61.2741 12.6092C61.0271 12.7126 60.8039 12.8645 60.6178 13.0558C60.4317 13.247 60.2867 13.4736 60.1915 13.722C60.0962 13.9703 60.0527 14.2352 60.0636 14.5007V14.5188C60.0539 14.7867 60.0987 15.0538 60.1953 15.3042C60.2918 15.5546 60.4382 15.7832 60.6258 15.9764C60.8133 16.1696 61.0381 16.3235 61.2868 16.4288C61.5355 16.5341 61.8031 16.5888 62.0736 16.5895C62.3417 16.5905 62.6073 16.5377 62.8542 16.4341C63.1012 16.3306 63.3244 16.1786 63.5105 15.9872C63.6965 15.7959 63.8415 15.5691 63.9368 15.3207C64.032 15.0723 64.0755 14.8073 64.0646 14.5418" fill="black" fill-opacity="0.2"/>
<path d="M69.3251 11.2345H70.6725L73.7805 15.2826V11.2345H75.2207V17.8087H73.9779L70.7667 13.6311V17.8087H69.3251V11.2345Z" fill="#44474C"/>
<path d="M69.3251 11.2345H70.6725L73.7805 15.2826V11.2345H75.2207V17.8087H73.9779L70.7667 13.6311V17.8087H69.3251V11.2345Z" fill="black" fill-opacity="0.2"/>
<path d="M69.3251 11.2345H70.6725L73.7805 15.2826V11.2345H75.2207V17.8087H73.9779L70.7667 13.6311V17.8087H69.3251V11.2345Z" fill="black" fill-opacity="0.2"/>
<path d="M69.3251 11.2345H70.6725L73.7805 15.2826V11.2345H75.2207V17.8087H73.9779L70.7667 13.6311V17.8087H69.3251V11.2345Z" fill="black" fill-opacity="0.2"/>
<path d="M69.3251 11.2345H70.6725L73.7805 15.2826V11.2345H75.2207V17.8087H73.9779L70.7667 13.6311V17.8087H69.3251V11.2345Z" fill="black" fill-opacity="0.2"/>
<path d="M69.3251 11.2345H70.6725L73.7805 15.2826V11.2345H75.2207V17.8087H73.9779L70.7667 13.6311V17.8087H69.3251V11.2345Z" fill="black" fill-opacity="0.2"/>
<path d="M79.2505 11.2345H80.7082V16.4942H84.0158V17.8087H79.2505V11.2345Z" fill="#44474C"/>
<path d="M79.2505 11.2345H80.7082V16.4942H84.0158V17.8087H79.2505V11.2345Z" fill="black" fill-opacity="0.2"/>
<path d="M79.2505 11.2345H80.7082V16.4942H84.0158V17.8087H79.2505V11.2345Z" fill="black" fill-opacity="0.2"/>
<path d="M79.2505 11.2345H80.7082V16.4942H84.0158V17.8087H79.2505V11.2345Z" fill="black" fill-opacity="0.2"/>
<path d="M79.2505 11.2345H80.7082V16.4942H84.0158V17.8087H79.2505V11.2345Z" fill="black" fill-opacity="0.2"/>
<path d="M79.2505 11.2345H80.7082V16.4942H84.0158V17.8087H79.2505V11.2345Z" fill="black" fill-opacity="0.2"/>
<path d="M89.0775 11.2338H87.6198V17.808H89.0775V11.2338Z" fill="#44474C"/>
<path d="M89.0775 11.2338H87.6198V17.808H89.0775V11.2338Z" fill="black" fill-opacity="0.2"/>
<path d="M89.0775 11.2338H87.6198V17.808H89.0775V11.2338Z" fill="black" fill-opacity="0.2"/>
<path d="M89.0775 11.2338H87.6198V17.808H89.0775V11.2338Z" fill="black" fill-opacity="0.2"/>
<path d="M89.0775 11.2338H87.6198V17.808H89.0775V11.2338Z" fill="black" fill-opacity="0.2"/>
<path d="M89.0775 11.2338H87.6198V17.808H89.0775V11.2338Z" fill="black" fill-opacity="0.2"/>
<path d="M93.1726 11.2345H94.5201L97.6281 15.2826V11.2345H99.0683V17.8087H97.8269L94.6156 13.6311V17.8087H93.1726V11.2345Z" fill="#44474C"/>
<path d="M93.1726 11.2345H94.5201L97.6281 15.2826V11.2345H99.0683V17.8087H97.8269L94.6156 13.6311V17.8087H93.1726V11.2345Z" fill="black" fill-opacity="0.2"/>
<path d="M93.1726 11.2345H94.5201L97.6281 15.2826V11.2345H99.0683V17.8087H97.8269L94.6156 13.6311V17.8087H93.1726V11.2345Z" fill="black" fill-opacity="0.2"/>
<path d="M93.1726 11.2345H94.5201L97.6281 15.2826V11.2345H99.0683V17.8087H97.8269L94.6156 13.6311V17.8087H93.1726V11.2345Z" fill="black" fill-opacity="0.2"/>
<path d="M93.1726 11.2345H94.5201L97.6281 15.2826V11.2345H99.0683V17.8087H97.8269L94.6156 13.6311V17.8087H93.1726V11.2345Z" fill="black" fill-opacity="0.2"/>
<path d="M93.1726 11.2345H94.5201L97.6281 15.2826V11.2345H99.0683V17.8087H97.8269L94.6156 13.6311V17.8087H93.1726V11.2345Z" fill="black" fill-opacity="0.2"/>
<path d="M103.096 11.2345H108.099V12.5212H104.546V13.8553H107.674V15.1413H104.546V16.5227H108.148V17.8087H103.096V11.2345Z" fill="#44474C"/>
<path d="M103.096 11.2345H108.099V12.5212H104.546V13.8553H107.674V15.1413H104.546V16.5227H108.148V17.8087H103.096V11.2345Z" fill="black" fill-opacity="0.2"/>
<path d="M103.096 11.2345H108.099V12.5212H104.546V13.8553H107.674V15.1413H104.546V16.5227H108.148V17.8087H103.096V11.2345Z" fill="black" fill-opacity="0.2"/>
<path d="M103.096 11.2345H108.099V12.5212H104.546V13.8553H107.674V15.1413H104.546V16.5227H108.148V17.8087H103.096V11.2345Z" fill="black" fill-opacity="0.2"/>
<path d="M103.096 11.2345H108.099V12.5212H104.546V13.8553H107.674V15.1413H104.546V16.5227H108.148V17.8087H103.096V11.2345Z" fill="black" fill-opacity="0.2"/>
<path d="M103.096 11.2345H108.099V12.5212H104.546V13.8553H107.674V15.1413H104.546V16.5227H108.148V17.8087H103.096V11.2345Z" fill="black" fill-opacity="0.2"/>
<path d="M58.8322 22.5072H60.4065L62.1509 25.2868L63.8939 22.5072H65.4648V29.0815H64.0161V24.7889L62.1509 27.5984H62.1116L60.266 24.8189V29.0836H58.8322V22.5072Z" fill="#44474C"/>
<path d="M58.8322 22.5072H60.4065L62.1509 25.2868L63.8939 22.5072H65.4648V29.0815H64.0161V24.7889L62.1509 27.5984H62.1116L60.266 24.8189V29.0836H58.8322V22.5072Z" fill="black" fill-opacity="0.2"/>
<path d="M58.8322 22.5072H60.4065L62.1509 25.2868L63.8939 22.5072H65.4648V29.0815H64.0161V24.7889L62.1509 27.5984H62.1116L60.266 24.8189V29.0836H58.8322V22.5072Z" fill="black" fill-opacity="0.2"/>
<path d="M58.8322 22.5072H60.4065L62.1509 25.2868L63.8939 22.5072H65.4648V29.0815H64.0161V24.7889L62.1509 27.5984H62.1116L60.266 24.8189V29.0836H58.8322V22.5072Z" fill="black" fill-opacity="0.2"/>
<path d="M58.8322 22.5072H60.4065L62.1509 25.2868L63.8939 22.5072H65.4648V29.0815H64.0161V24.7889L62.1509 27.5984H62.1116L60.266 24.8189V29.0836H58.8322V22.5072Z" fill="black" fill-opacity="0.2"/>
<path d="M58.8322 22.5072H60.4065L62.1509 25.2868L63.8939 22.5072H65.4648V29.0815H64.0161V24.7889L62.1509 27.5984H62.1116L60.266 24.8189V29.0836H58.8322V22.5072Z" fill="black" fill-opacity="0.2"/>
<path d="M71.7706 22.4592H73.1152L75.9584 29.0808H74.4311L73.8269 27.6068H71.0217L70.4147 29.0808H68.926L71.7706 22.4592ZM73.3056 26.3263L72.4246 24.1943L71.543 26.3263H73.3056Z" fill="#44474C"/>
<path d="M71.7706 22.4592H73.1152L75.9584 29.0808H74.4311L73.8269 27.6068H71.0217L70.4147 29.0808H68.926L71.7706 22.4592ZM73.3056 26.3263L72.4246 24.1943L71.543 26.3263H73.3056Z" fill="black" fill-opacity="0.2"/>
<path d="M71.7706 22.4592H73.1152L75.9584 29.0808H74.4311L73.8269 27.6068H71.0217L70.4147 29.0808H68.926L71.7706 22.4592ZM73.3056 26.3263L72.4246 24.1943L71.543 26.3263H73.3056Z" fill="black" fill-opacity="0.2"/>
<path d="M71.7706 22.4592H73.1152L75.9584 29.0808H74.4311L73.8269 27.6068H71.0217L70.4147 29.0808H68.926L71.7706 22.4592ZM73.3056 26.3263L72.4246 24.1943L71.543 26.3263H73.3056Z" fill="black" fill-opacity="0.2"/>
<path d="M71.7706 22.4592H73.1152L75.9584 29.0808H74.4311L73.8269 27.6068H71.0217L70.4147 29.0808H68.926L71.7706 22.4592ZM73.3056 26.3263L72.4246 24.1943L71.543 26.3263H73.3056Z" fill="black" fill-opacity="0.2"/>
<path d="M71.7706 22.4592H73.1152L75.9584 29.0808H74.4311L73.8269 27.6068H71.0217L70.4147 29.0808H68.926L71.7706 22.4592ZM73.3056 26.3263L72.4246 24.1943L71.543 26.3263H73.3056Z" fill="black" fill-opacity="0.2"/>
<path d="M79.4219 22.5065H82.454C82.8049 22.485 83.1565 22.5329 83.4885 22.6475C83.8205 22.7622 84.126 22.9412 84.3874 23.1743C84.5783 23.3744 84.7268 23.6104 84.8243 23.8684C84.9218 24.1263 84.9662 24.4009 84.955 24.6761V24.6956C84.9766 25.1429 84.8491 25.5849 84.5921 25.9532C84.3352 26.3215 83.963 26.5958 83.5331 26.7336L85.1559 29.0822H83.4481L82.0276 26.9766H80.881V29.0801H79.4219V22.5065ZM82.3592 25.7004C83.068 25.7004 83.4762 25.3251 83.4762 24.7708V24.7486C83.4762 24.1296 83.0413 23.8093 82.3297 23.8093H80.881V25.6976L82.3592 25.7004Z" fill="#44474C"/>
<path d="M79.4219 22.5065H82.454C82.8049 22.485 83.1565 22.5329 83.4885 22.6475C83.8205 22.7622 84.126 22.9412 84.3874 23.1743C84.5783 23.3744 84.7268 23.6104 84.8243 23.8684C84.9218 24.1263 84.9662 24.4009 84.955 24.6761V24.6956C84.9766 25.1429 84.8491 25.5849 84.5921 25.9532C84.3352 26.3215 83.963 26.5958 83.5331 26.7336L85.1559 29.0822H83.4481L82.0276 26.9766H80.881V29.0801H79.4219V22.5065ZM82.3592 25.7004C83.068 25.7004 83.4762 25.3251 83.4762 24.7708V24.7486C83.4762 24.1296 83.0413 23.8093 82.3297 23.8093H80.881V25.6976L82.3592 25.7004Z" fill="black" fill-opacity="0.2"/>
<path d="M79.4219 22.5065H82.454C82.8049 22.485 83.1565 22.5329 83.4885 22.6475C83.8205 22.7622 84.126 22.9412 84.3874 23.1743C84.5783 23.3744 84.7268 23.6104 84.8243 23.8684C84.9218 24.1263 84.9662 24.4009 84.955 24.6761V24.6956C84.9766 25.1429 84.8491 25.5849 84.5921 25.9532C84.3352 26.3215 83.963 26.5958 83.5331 26.7336L85.1559 29.0822H83.4481L82.0276 26.9766H80.881V29.0801H79.4219V22.5065ZM82.3592 25.7004C83.068 25.7004 83.4762 25.3251 83.4762 24.7708V24.7486C83.4762 24.1296 83.0413 23.8093 82.3297 23.8093H80.881V25.6976L82.3592 25.7004Z" fill="black" fill-opacity="0.2"/>
<path d="M79.4219 22.5065H82.454C82.8049 22.485 83.1565 22.5329 83.4885 22.6475C83.8205 22.7622 84.126 22.9412 84.3874 23.1743C84.5783 23.3744 84.7268 23.6104 84.8243 23.8684C84.9218 24.1263 84.9662 24.4009 84.955 24.6761V24.6956C84.9766 25.1429 84.8491 25.5849 84.5921 25.9532C84.3352 26.3215 83.963 26.5958 83.5331 26.7336L85.1559 29.0822H83.4481L82.0276 26.9766H80.881V29.0801H79.4219V22.5065ZM82.3592 25.7004C83.068 25.7004 83.4762 25.3251 83.4762 24.7708V24.7486C83.4762 24.1296 83.0413 23.8093 82.3297 23.8093H80.881V25.6976L82.3592 25.7004Z" fill="black" fill-opacity="0.2"/>
<path d="M79.4219 22.5065H82.454C82.8049 22.485 83.1565 22.5329 83.4885 22.6475C83.8205 22.7622 84.126 22.9412 84.3874 23.1743C84.5783 23.3744 84.7268 23.6104 84.8243 23.8684C84.9218 24.1263 84.9662 24.4009 84.955 24.6761V24.6956C84.9766 25.1429 84.8491 25.5849 84.5921 25.9532C84.3352 26.3215 83.963 26.5958 83.5331 26.7336L85.1559 29.0822H83.4481L82.0276 26.9766H80.881V29.0801H79.4219V22.5065ZM82.3592 25.7004C83.068 25.7004 83.4762 25.3251 83.4762 24.7708V24.7486C83.4762 24.1296 83.0413 23.8093 82.3297 23.8093H80.881V25.6976L82.3592 25.7004Z" fill="black" fill-opacity="0.2"/>
<path d="M79.4219 22.5065H82.454C82.8049 22.485 83.1565 22.5329 83.4885 22.6475C83.8205 22.7622 84.126 22.9412 84.3874 23.1743C84.5783 23.3744 84.7268 23.6104 84.8243 23.8684C84.9218 24.1263 84.9662 24.4009 84.955 24.6761V24.6956C84.9766 25.1429 84.8491 25.5849 84.5921 25.9532C84.3352 26.3215 83.963 26.5958 83.5331 26.7336L85.1559 29.0822H83.4481L82.0276 26.9766H80.881V29.0801H79.4219V22.5065ZM82.3592 25.7004C83.068 25.7004 83.4762 25.3251 83.4762 24.7708V24.7486C83.4762 24.1296 83.0413 23.8093 82.3297 23.8093H80.881V25.6976L82.3592 25.7004Z" fill="black" fill-opacity="0.2"/>
<path d="M88.7101 22.5072H90.1678V25.3822L92.8606 22.5072H94.6233L91.9214 25.2965L94.7455 29.0815H92.9892L90.9357 26.2811L90.1678 27.0713V29.0815H88.7101V22.5072Z" fill="#44474C"/>
<path d="M88.7101 22.5072H90.1678V25.3822L92.8606 22.5072H94.6233L91.9214 25.2965L94.7455 29.0815H92.9892L90.9357 26.2811L90.1678 27.0713V29.0815H88.7101V22.5072Z" fill="black" fill-opacity="0.2"/>
<path d="M88.7101 22.5072H90.1678V25.3822L92.8606 22.5072H94.6233L91.9214 25.2965L94.7455 29.0815H92.9892L90.9357 26.2811L90.1678 27.0713V29.0815H88.7101V22.5072Z" fill="black" fill-opacity="0.2"/>
<path d="M88.7101 22.5072H90.1678V25.3822L92.8606 22.5072H94.6233L91.9214 25.2965L94.7455 29.0815H92.9892L90.9357 26.2811L90.1678 27.0713V29.0815H88.7101V22.5072Z" fill="black" fill-opacity="0.2"/>
<path d="M88.7101 22.5072H90.1678V25.3822L92.8606 22.5072H94.6233L91.9214 25.2965L94.7455 29.0815H92.9892L90.9357 26.2811L90.1678 27.0713V29.0815H88.7101V22.5072Z" fill="black" fill-opacity="0.2"/>
<path d="M88.7101 22.5072H90.1678V25.3822L92.8606 22.5072H94.6233L91.9214 25.2965L94.7455 29.0815H92.9892L90.9357 26.2811L90.1678 27.0713V29.0815H88.7101V22.5072Z" fill="black" fill-opacity="0.2"/>
<path d="M98.0643 22.5072H103.068V23.7933H99.5122V25.1273H102.641V26.4134H99.5122V27.7948H103.113V29.0808H98.0643V22.5072Z" fill="#44474C"/>
<path d="M98.0643 22.5072H103.068V23.7933H99.5122V25.1273H102.641V26.4134H99.5122V27.7948H103.113V29.0808H98.0643V22.5072Z" fill="black" fill-opacity="0.2"/>
<path d="M98.0643 22.5072H103.068V23.7933H99.5122V25.1273H102.641V26.4134H99.5122V27.7948H103.113V29.0808H98.0643V22.5072Z" fill="black" fill-opacity="0.2"/>
<path d="M98.0643 22.5072H103.068V23.7933H99.5122V25.1273H102.641V26.4134H99.5122V27.7948H103.113V29.0808H98.0643V22.5072Z" fill="black" fill-opacity="0.2"/>
<path d="M98.0643 22.5072H103.068V23.7933H99.5122V25.1273H102.641V26.4134H99.5122V27.7948H103.113V29.0808H98.0643V22.5072Z" fill="black" fill-opacity="0.2"/>
<path d="M98.0643 22.5072H103.068V23.7933H99.5122V25.1273H102.641V26.4134H99.5122V27.7948H103.113V29.0808H98.0643V22.5072Z" fill="black" fill-opacity="0.2"/>
<path d="M108.397 23.8434H106.378V22.5065H111.873V23.8434H109.856V29.085H108.397V23.8434Z" fill="#44474C"/>
<path d="M108.397 23.8434H106.378V22.5065H111.873V23.8434H109.856V29.085H108.397V23.8434Z" fill="black" fill-opacity="0.2"/>
<path d="M108.397 23.8434H106.378V22.5065H111.873V23.8434H109.856V29.085H108.397V23.8434Z" fill="black" fill-opacity="0.2"/>
<path d="M108.397 23.8434H106.378V22.5065H111.873V23.8434H109.856V29.085H108.397V23.8434Z" fill="black" fill-opacity="0.2"/>
<path d="M108.397 23.8434H106.378V22.5065H111.873V23.8434H109.856V29.085H108.397V23.8434Z" fill="black" fill-opacity="0.2"/>
<path d="M108.397 23.8434H106.378V22.5065H111.873V23.8434H109.856V29.085H108.397V23.8434Z" fill="black" fill-opacity="0.2"/>
<path d="M116.952 22.5065H115.494V29.0808H116.952V22.5065Z" fill="#44474C"/>
<path d="M116.952 22.5065H115.494V29.0808H116.952V22.5065Z" fill="black" fill-opacity="0.2"/>
<path d="M116.952 22.5065H115.494V29.0808H116.952V22.5065Z" fill="black" fill-opacity="0.2"/>
<path d="M116.952 22.5065H115.494V29.0808H116.952V22.5065Z" fill="black" fill-opacity="0.2"/>
<path d="M116.952 22.5065H115.494V29.0808H116.952V22.5065Z" fill="black" fill-opacity="0.2"/>
<path d="M116.952 22.5065H115.494V29.0808H116.952V22.5065Z" fill="black" fill-opacity="0.2"/>
<path d="M121.049 22.5072H122.397L125.505 26.5554V22.5072H126.945V29.0815H125.703L122.491 24.9038V29.0815H121.049V22.5072Z" fill="#44474C"/>
<path d="M121.049 22.5072H122.397L125.505 26.5554V22.5072H126.945V29.0815H125.703L122.491 24.9038V29.0815H121.049V22.5072Z" fill="black" fill-opacity="0.2"/>
<path d="M121.049 22.5072H122.397L125.505 26.5554V22.5072H126.945V29.0815H125.703L122.491 24.9038V29.0815H121.049V22.5072Z" fill="black" fill-opacity="0.2"/>
<path d="M121.049 22.5072H122.397L125.505 26.5554V22.5072H126.945V29.0815H125.703L122.491 24.9038V29.0815H121.049V22.5072Z" fill="black" fill-opacity="0.2"/>
<path d="M121.049 22.5072H122.397L125.505 26.5554V22.5072H126.945V29.0815H125.703L122.491 24.9038V29.0815H121.049V22.5072Z" fill="black" fill-opacity="0.2"/>
<path d="M121.049 22.5072H122.397L125.505 26.5554V22.5072H126.945V29.0815H125.703L122.491 24.9038V29.0815H121.049V22.5072Z" fill="black" fill-opacity="0.2"/>
<path d="M130.679 25.8132V25.7937C130.675 25.3422 130.763 24.8946 130.938 24.4775C131.112 24.0604 131.369 23.6821 131.693 23.3652C132.018 23.0482 132.403 22.799 132.827 22.6323C133.25 22.4655 133.703 22.3847 134.158 22.3944C135.113 22.345 136.048 22.6702 136.762 23.2996L135.843 24.3983C135.376 23.9579 134.753 23.7184 134.108 23.732C133.583 23.7546 133.087 23.9826 132.731 24.366C132.374 24.7494 132.185 25.2572 132.204 25.7784V25.7965C132.188 26.0669 132.228 26.3377 132.322 26.5922C132.416 26.8466 132.561 27.0791 132.75 27.2751C132.939 27.4712 133.166 27.6265 133.418 27.7315C133.67 27.8365 133.941 27.8889 134.214 27.8853C134.703 27.8997 135.183 27.7621 135.589 27.4919V26.545H134.119V25.2965H136.999V28.1513C136.213 28.8273 135.206 29.1983 134.165 29.1957C133.707 29.2185 133.249 29.1471 132.821 28.9862C132.393 28.8253 132.002 28.5782 131.675 28.2606C131.347 27.943 131.09 27.5617 130.918 27.1406C130.747 26.7195 130.665 26.2678 130.678 25.8139" fill="#44474C"/>
<path d="M130.679 25.8132V25.7937C130.675 25.3422 130.763 24.8946 130.938 24.4775C131.112 24.0604 131.369 23.6821 131.693 23.3652C132.018 23.0482 132.403 22.799 132.827 22.6323C133.25 22.4655 133.703 22.3847 134.158 22.3944C135.113 22.345 136.048 22.6702 136.762 23.2996L135.843 24.3983C135.376 23.9579 134.753 23.7184 134.108 23.732C133.583 23.7546 133.087 23.9826 132.731 24.366C132.374 24.7494 132.185 25.2572 132.204 25.7784V25.7965C132.188 26.0669 132.228 26.3377 132.322 26.5922C132.416 26.8466 132.561 27.0791 132.75 27.2751C132.939 27.4712 133.166 27.6265 133.418 27.7315C133.67 27.8365 133.941 27.8889 134.214 27.8853C134.703 27.8997 135.183 27.7621 135.589 27.4919V26.545H134.119V25.2965H136.999V28.1513C136.213 28.8273 135.206 29.1983 134.165 29.1957C133.707 29.2185 133.249 29.1471 132.821 28.9862C132.393 28.8253 132.002 28.5782 131.675 28.2606C131.347 27.943 131.09 27.5617 130.918 27.1406C130.747 26.7195 130.665 26.2678 130.678 25.8139" fill="black" fill-opacity="0.2"/>
<path d="M130.679 25.8132V25.7937C130.675 25.3422 130.763 24.8946 130.938 24.4775C131.112 24.0604 131.369 23.6821 131.693 23.3652C132.018 23.0482 132.403 22.799 132.827 22.6323C133.25 22.4655 133.703 22.3847 134.158 22.3944C135.113 22.345 136.048 22.6702 136.762 23.2996L135.843 24.3983C135.376 23.9579 134.753 23.7184 134.108 23.732C133.583 23.7546 133.087 23.9826 132.731 24.366C132.374 24.7494 132.185 25.2572 132.204 25.7784V25.7965C132.188 26.0669 132.228 26.3377 132.322 26.5922C132.416 26.8466 132.561 27.0791 132.75 27.2751C132.939 27.4712 133.166 27.6265 133.418 27.7315C133.67 27.8365 133.941 27.8889 134.214 27.8853C134.703 27.8997 135.183 27.7621 135.589 27.4919V26.545H134.119V25.2965H136.999V28.1513C136.213 28.8273 135.206 29.1983 134.165 29.1957C133.707 29.2185 133.249 29.1471 132.821 28.9862C132.393 28.8253 132.002 28.5782 131.675 28.2606C131.347 27.943 131.09 27.5617 130.918 27.1406C130.747 26.7195 130.665 26.2678 130.678 25.8139" fill="black" fill-opacity="0.2"/>
<path d="M130.679 25.8132V25.7937C130.675 25.3422 130.763 24.8946 130.938 24.4775C131.112 24.0604 131.369 23.6821 131.693 23.3652C132.018 23.0482 132.403 22.799 132.827 22.6323C133.25 22.4655 133.703 22.3847 134.158 22.3944C135.113 22.345 136.048 22.6702 136.762 23.2996L135.843 24.3983C135.376 23.9579 134.753 23.7184 134.108 23.732C133.583 23.7546 133.087 23.9826 132.731 24.366C132.374 24.7494 132.185 25.2572 132.204 25.7784V25.7965C132.188 26.0669 132.228 26.3377 132.322 26.5922C132.416 26.8466 132.561 27.0791 132.75 27.2751C132.939 27.4712 133.166 27.6265 133.418 27.7315C133.67 27.8365 133.941 27.8889 134.214 27.8853C134.703 27.8997 135.183 27.7621 135.589 27.4919V26.545H134.119V25.2965H136.999V28.1513C136.213 28.8273 135.206 29.1983 134.165 29.1957C133.707 29.2185 133.249 29.1471 132.821 28.9862C132.393 28.8253 132.002 28.5782 131.675 28.2606C131.347 27.943 131.09 27.5617 130.918 27.1406C130.747 26.7195 130.665 26.2678 130.678 25.8139" fill="black" fill-opacity="0.2"/>
<path d="M130.679 25.8132V25.7937C130.675 25.3422 130.763 24.8946 130.938 24.4775C131.112 24.0604 131.369 23.6821 131.693 23.3652C132.018 23.0482 132.403 22.799 132.827 22.6323C133.25 22.4655 133.703 22.3847 134.158 22.3944C135.113 22.345 136.048 22.6702 136.762 23.2996L135.843 24.3983C135.376 23.9579 134.753 23.7184 134.108 23.732C133.583 23.7546 133.087 23.9826 132.731 24.366C132.374 24.7494 132.185 25.2572 132.204 25.7784V25.7965C132.188 26.0669 132.228 26.3377 132.322 26.5922C132.416 26.8466 132.561 27.0791 132.75 27.2751C132.939 27.4712 133.166 27.6265 133.418 27.7315C133.67 27.8365 133.941 27.8889 134.214 27.8853C134.703 27.8997 135.183 27.7621 135.589 27.4919V26.545H134.119V25.2965H136.999V28.1513C136.213 28.8273 135.206 29.1983 134.165 29.1957C133.707 29.2185 133.249 29.1471 132.821 28.9862C132.393 28.8253 132.002 28.5782 131.675 28.2606C131.347 27.943 131.09 27.5617 130.918 27.1406C130.747 26.7195 130.665 26.2678 130.678 25.8139" fill="black" fill-opacity="0.2"/>
<path d="M130.679 25.8132V25.7937C130.675 25.3422 130.763 24.8946 130.938 24.4775C131.112 24.0604 131.369 23.6821 131.693 23.3652C132.018 23.0482 132.403 22.799 132.827 22.6323C133.25 22.4655 133.703 22.3847 134.158 22.3944C135.113 22.345 136.048 22.6702 136.762 23.2996L135.843 24.3983C135.376 23.9579 134.753 23.7184 134.108 23.732C133.583 23.7546 133.087 23.9826 132.731 24.366C132.374 24.7494 132.185 25.2572 132.204 25.7784V25.7965C132.188 26.0669 132.228 26.3377 132.322 26.5922C132.416 26.8466 132.561 27.0791 132.75 27.2751C132.939 27.4712 133.166 27.6265 133.418 27.7315C133.67 27.8365 133.941 27.8889 134.214 27.8853C134.703 27.8997 135.183 27.7621 135.589 27.4919V26.545H134.119V25.2965H136.999V28.1513C136.213 28.8273 135.206 29.1983 134.165 29.1957C133.707 29.2185 133.249 29.1471 132.821 28.9862C132.393 28.8253 132.002 28.5782 131.675 28.2606C131.347 27.943 131.09 27.5617 130.918 27.1406C130.747 26.7195 130.665 26.2678 130.678 25.8139" fill="black" fill-opacity="0.2"/>
<path d="M58.183 1.28045V0.97757H49.6346C46.1353 0.97757 44.589 1.34312 42.2004 3.77661C38.2445 7.80041 36.4172 10.1086 31.2135 17.3743L29.361 19.8864C32.7746 21.9439 34.4396 24.8871 34.4396 29.0279C34.4396 29.0655 34.4339 29.0975 34.4339 29.1386C37.156 33.0657 40.1365 36.8106 43.3561 40.3487C45.3354 42.2711 47.9757 43.3794 50.746 43.4506C54.61 43.4506 56.5138 41.932 57.8058 37.1145C54.7427 36.444 53.6299 35.5284 50.5528 32.2983C47.1104 28.7027 44.2884 24.438 41.3904 20.4107C45.6997 14.7472 52.8311 6.33474 58.183 1.28045Z" fill="#44474C"/>
<path d="M58.183 1.28045V0.97757H49.6346C46.1353 0.97757 44.589 1.34312 42.2004 3.77661C38.2445 7.80041 36.4172 10.1086 31.2135 17.3743L29.361 19.8864C32.7746 21.9439 34.4396 24.8871 34.4396 29.0279C34.4396 29.0655 34.4339 29.0975 34.4339 29.1386C37.156 33.0657 40.1365 36.8106 43.3561 40.3487C45.3354 42.2711 47.9757 43.3794 50.746 43.4506C54.61 43.4506 56.5138 41.932 57.8058 37.1145C54.7427 36.444 53.6299 35.5284 50.5528 32.2983C47.1104 28.7027 44.2884 24.438 41.3904 20.4107C45.6997 14.7472 52.8311 6.33474 58.183 1.28045Z" fill="black" fill-opacity="0.2"/>
<path d="M58.183 1.28045V0.97757H49.6346C46.1353 0.97757 44.589 1.34312 42.2004 3.77661C38.2445 7.80041 36.4172 10.1086 31.2135 17.3743L29.361 19.8864C32.7746 21.9439 34.4396 24.8871 34.4396 29.0279C34.4396 29.0655 34.4339 29.0975 34.4339 29.1386C37.156 33.0657 40.1365 36.8106 43.3561 40.3487C45.3354 42.2711 47.9757 43.3794 50.746 43.4506C54.61 43.4506 56.5138 41.932 57.8058 37.1145C54.7427 36.444 53.6299 35.5284 50.5528 32.2983C47.1104 28.7027 44.2884 24.438 41.3904 20.4107C45.6997 14.7472 52.8311 6.33474 58.183 1.28045Z" fill="black" fill-opacity="0.2"/>
<path d="M58.183 1.28045V0.97757H49.6346C46.1353 0.97757 44.589 1.34312 42.2004 3.77661C38.2445 7.80041 36.4172 10.1086 31.2135 17.3743L29.361 19.8864C32.7746 21.9439 34.4396 24.8871 34.4396 29.0279C34.4396 29.0655 34.4339 29.0975 34.4339 29.1386C37.156 33.0657 40.1365 36.8106 43.3561 40.3487C45.3354 42.2711 47.9757 43.3794 50.746 43.4506C54.61 43.4506 56.5138 41.932 57.8058 37.1145C54.7427 36.444 53.6299 35.5284 50.5528 32.2983C47.1104 28.7027 44.2884 24.438 41.3904 20.4107C45.6997 14.7472 52.8311 6.33474 58.183 1.28045Z" fill="black" fill-opacity="0.2"/>
<path d="M58.183 1.28045V0.97757H49.6346C46.1353 0.97757 44.589 1.34312 42.2004 3.77661C38.2445 7.80041 36.4172 10.1086 31.2135 17.3743L29.361 19.8864C32.7746 21.9439 34.4396 24.8871 34.4396 29.0279C34.4396 29.0655 34.4339 29.0975 34.4339 29.1386C37.156 33.0657 40.1365 36.8106 43.3561 40.3487C45.3354 42.2711 47.9757 43.3794 50.746 43.4506C54.61 43.4506 56.5138 41.932 57.8058 37.1145C54.7427 36.444 53.6299 35.5284 50.5528 32.2983C47.1104 28.7027 44.2884 24.438 41.3904 20.4107C45.6997 14.7472 52.8311 6.33474 58.183 1.28045Z" fill="black" fill-opacity="0.2"/>
<path d="M58.183 1.28045V0.97757H49.6346C46.1353 0.97757 44.589 1.34312 42.2004 3.77661C38.2445 7.80041 36.4172 10.1086 31.2135 17.3743L29.361 19.8864C32.7746 21.9439 34.4396 24.8871 34.4396 29.0279C34.4396 29.0655 34.4339 29.0975 34.4339 29.1386C37.156 33.0657 40.1365 36.8106 43.3561 40.3487C45.3354 42.2711 47.9757 43.3794 50.746 43.4506C54.61 43.4506 56.5138 41.932 57.8058 37.1145C54.7427 36.444 53.6299 35.5284 50.5528 32.2983C47.1104 28.7027 44.2884 24.438 41.3904 20.4107C45.6997 14.7472 52.8311 6.33474 58.183 1.28045Z" fill="black" fill-opacity="0.2"/>
<path d="M15.5021 44C6.15839 44 1.11141 40.4643 1.11141 34.4345V30.2882H1.42754C4.07117 32.9674 9.59869 34.5529 14.4497 34.5529C19.8725 34.5529 21.586 33.2724 21.586 30.4671C21.586 27.9055 19.2571 27.0553 12.7973 25.777C3.57589 23.9471 0 20.5973 0 14.1957C0 6.7003 6.89465 0 17.6504 0C28.1048 0 32.1001 4.69014 32.1001 9.01404V13.466H31.7994C28.9766 10.66 23.8685 9.44643 19.4348 9.44643C13.6516 9.44643 11.6831 10.965 11.6831 13.3456C11.6831 15.2353 12.4952 16.27 20.3657 17.8554C29.0932 19.6205 33.2691 23.1562 33.2691 29.6768C33.2691 38.3929 26.8093 43.9986 15.4986 43.9986" fill="#44474C"/>
<path d="M15.5021 44C6.15839 44 1.11141 40.4643 1.11141 34.4345V30.2882H1.42754C4.07117 32.9674 9.59869 34.5529 14.4497 34.5529C19.8725 34.5529 21.586 33.2724 21.586 30.4671C21.586 27.9055 19.2571 27.0553 12.7973 25.777C3.57589 23.9471 0 20.5973 0 14.1957C0 6.7003 6.89465 0 17.6504 0C28.1048 0 32.1001 4.69014 32.1001 9.01404V13.466H31.7994C28.9766 10.66 23.8685 9.44643 19.4348 9.44643C13.6516 9.44643 11.6831 10.965 11.6831 13.3456C11.6831 15.2353 12.4952 16.27 20.3657 17.8554C29.0932 19.6205 33.2691 23.1562 33.2691 29.6768C33.2691 38.3929 26.8093 43.9986 15.4986 43.9986" fill="black" fill-opacity="0.2"/>
<path d="M15.5021 44C6.15839 44 1.11141 40.4643 1.11141 34.4345V30.2882H1.42754C4.07117 32.9674 9.59869 34.5529 14.4497 34.5529C19.8725 34.5529 21.586 33.2724 21.586 30.4671C21.586 27.9055 19.2571 27.0553 12.7973 25.777C3.57589 23.9471 0 20.5973 0 14.1957C0 6.7003 6.89465 0 17.6504 0C28.1048 0 32.1001 4.69014 32.1001 9.01404V13.466H31.7994C28.9766 10.66 23.8685 9.44643 19.4348 9.44643C13.6516 9.44643 11.6831 10.965 11.6831 13.3456C11.6831 15.2353 12.4952 16.27 20.3657 17.8554C29.0932 19.6205 33.2691 23.1562 33.2691 29.6768C33.2691 38.3929 26.8093 43.9986 15.4986 43.9986" fill="black" fill-opacity="0.2"/>
<path d="M15.5021 44C6.15839 44 1.11141 40.4643 1.11141 34.4345V30.2882H1.42754C4.07117 32.9674 9.59869 34.5529 14.4497 34.5529C19.8725 34.5529 21.586 33.2724 21.586 30.4671C21.586 27.9055 19.2571 27.0553 12.7973 25.777C3.57589 23.9471 0 20.5973 0 14.1957C0 6.7003 6.89465 0 17.6504 0C28.1048 0 32.1001 4.69014 32.1001 9.01404V13.466H31.7994C28.9766 10.66 23.8685 9.44643 19.4348 9.44643C13.6516 9.44643 11.6831 10.965 11.6831 13.3456C11.6831 15.2353 12.4952 16.27 20.3657 17.8554C29.0932 19.6205 33.2691 23.1562 33.2691 29.6768C33.2691 38.3929 26.8093 43.9986 15.4986 43.9986" fill="black" fill-opacity="0.2"/>
<path d="M15.5021 44C6.15839 44 1.11141 40.4643 1.11141 34.4345V30.2882H1.42754C4.07117 32.9674 9.59869 34.5529 14.4497 34.5529C19.8725 34.5529 21.586 33.2724 21.586 30.4671C21.586 27.9055 19.2571 27.0553 12.7973 25.777C3.57589 23.9471 0 20.5973 0 14.1957C0 6.7003 6.89465 0 17.6504 0C28.1048 0 32.1001 4.69014 32.1001 9.01404V13.466H31.7994C28.9766 10.66 23.8685 9.44643 19.4348 9.44643C13.6516 9.44643 11.6831 10.965 11.6831 13.3456C11.6831 15.2353 12.4952 16.27 20.3657 17.8554C29.0932 19.6205 33.2691 23.1562 33.2691 29.6768C33.2691 38.3929 26.8093 43.9986 15.4986 43.9986" fill="black" fill-opacity="0.2"/>
<path d="M15.5021 44C6.15839 44 1.11141 40.4643 1.11141 34.4345V30.2882H1.42754C4.07117 32.9674 9.59869 34.5529 14.4497 34.5529C19.8725 34.5529 21.586 33.2724 21.586 30.4671C21.586 27.9055 19.2571 27.0553 12.7973 25.777C3.57589 23.9471 0 20.5973 0 14.1957C0 6.7003 6.89465 0 17.6504 0C28.1048 0 32.1001 4.69014 32.1001 9.01404V13.466H31.7994C28.9766 10.66 23.8685 9.44643 19.4348 9.44643C13.6516 9.44643 11.6831 10.965 11.6831 13.3456C11.6831 15.2353 12.4952 16.27 20.3657 17.8554C29.0932 19.6205 33.2691 23.1562 33.2691 29.6768C33.2691 38.3929 26.8093 43.9986 15.4986 43.9986" fill="black" fill-opacity="0.2"/>
</g>
</g>
<defs>
<clipPath id="clip0_104_925">
<rect width="137" height="44" fill="white"/>
</clipPath>
</defs>
</svg>
