<svg viewBox="0 0 544 544" xmlns="http://www.w3.org/2000/svg" className="w-full h-auto" fill="none">
<path d="M272 0L352.47 80.4698C382.514 110.514 382.514 159.294 352.47 189.338L326.434 215.374C296.39 245.418 247.61 245.418 217.566 215.374L191.53 189.338C161.486 159.294 161.486 110.514 191.53 80.4698L272 0Z" fill="#0693E3"/>
<path d="M0 272L80.4698 191.53C110.514 161.486 159.294 161.486 189.338 191.53L215.374 217.566C245.418 247.61 245.418 296.39 215.374 326.434L189.338 352.47C159.31 382.53 110.514 382.514 80.4698 352.47L0 272Z" fill="#005FAB"/>
<path d="M204.548 476.548L272 544L339.452 476.548C376.713 439.287 376.697 378.889 339.452 341.644C302.19 304.383 241.793 304.399 204.548 341.644C167.303 378.889 167.287 439.287 204.548 476.548Z" fill="#005FAB"/>
<path d="M476.548 339.452L544 272L476.548 204.548C439.287 167.287 378.889 167.303 341.644 204.548C304.383 241.81 304.399 302.207 341.644 339.452C378.906 376.714 439.303 376.697 476.548 339.452Z" fill="url(#paint0_linear_230_1214)"/>
<path d="M230.786 410.737C230.786 426.947 240.206 440.956 253.867 447.595L234.331 394.071C232.059 399.164 230.786 404.8 230.786 410.737Z" fill="white"/>
<path d="M299.385 408.671C299.385 403.609 297.567 400.104 296.008 397.376C293.932 394.003 291.986 391.146 291.986 387.773C291.986 384.008 294.842 380.504 298.863 380.504C299.045 380.504 299.217 380.526 299.394 380.536C292.108 373.861 282.401 369.786 271.739 369.786C257.432 369.786 244.844 377.126 237.522 388.245C238.483 388.274 239.388 388.294 240.157 388.294C244.441 388.294 251.071 387.774 251.071 387.774C253.279 387.644 253.539 390.887 251.334 391.148C251.334 391.148 249.115 391.409 246.647 391.538L261.56 435.897L270.522 409.018L264.142 391.536C261.937 391.407 259.847 391.146 259.847 391.146C257.641 391.017 257.899 387.643 260.106 387.773C260.106 387.773 266.869 388.292 270.893 388.292C275.176 388.292 281.808 387.773 281.808 387.773C284.017 387.643 284.276 390.885 282.07 391.146C282.07 391.146 279.847 391.407 277.383 391.536L292.183 435.56L296.268 421.91C298.038 416.245 299.385 412.177 299.385 408.671Z" fill="white"/>
<path d="M272.457 414.32L260.17 450.024C263.839 451.103 267.719 451.693 271.739 451.693C276.508 451.693 281.081 450.868 285.339 449.371C285.229 449.196 285.129 449.01 285.047 448.807L272.457 414.32Z" fill="white"/>
<path d="M307.674 391.089C307.85 392.394 307.949 393.794 307.949 395.3C307.949 399.456 307.173 404.128 304.836 409.969L292.326 446.137C304.501 439.037 312.69 425.846 312.69 410.738C312.691 403.618 310.872 396.923 307.674 391.089Z" fill="white"/>
<path d="M271.739 363C245.416 363 224 384.415 224 410.737C224 437.063 245.416 458.477 271.739 458.477C298.061 458.477 319.48 437.063 319.48 410.737C319.479 384.415 298.061 363 271.739 363ZM271.739 456.289C246.623 456.289 226.189 435.854 226.189 410.737C226.189 385.622 246.623 365.189 271.739 365.189C296.854 365.189 317.286 385.622 317.286 410.737C317.286 435.854 296.854 456.289 271.739 456.289Z" fill="white"/>
<path d="M328.056 132.461C328.056 125.104 318.843 118.132 304.717 113.809C307.977 99.4117 306.528 87.9575 300.145 84.2903C298.673 83.4301 296.953 83.0227 295.074 83.0227V88.0707C296.115 88.0707 296.953 88.2744 297.655 88.6592C300.733 90.4249 302.069 97.148 301.028 105.795C300.779 107.923 300.371 110.164 299.873 112.45C295.436 111.364 290.592 110.526 285.499 109.983C282.443 105.795 279.274 101.992 276.082 98.6647C283.462 91.8057 290.388 88.048 295.097 88.048V83C288.872 83 280.722 87.4368 272.483 95.1333C264.243 87.4821 256.094 83.0906 249.869 83.0906V88.1386C254.554 88.1386 261.504 91.8736 268.883 98.6873C265.714 102.015 262.545 105.795 259.534 109.983C254.419 110.526 249.574 111.364 245.137 112.473C244.617 110.209 244.232 108.014 243.96 105.908C242.896 97.2612 244.209 90.5381 247.265 88.7498C247.944 88.3423 248.827 88.1612 249.869 88.1612V83.1132C247.967 83.1132 246.247 83.5207 244.753 84.3809C238.392 88.048 236.966 99.4796 240.248 113.831C226.168 118.178 217 125.127 217 132.461C217 139.818 226.213 146.79 240.339 151.114C237.079 165.511 238.528 176.965 244.911 180.632C246.383 181.493 248.103 181.9 250.004 181.9C256.23 181.9 264.379 177.463 272.619 169.767C280.858 177.418 289.008 181.81 295.233 181.81C297.134 181.81 298.855 181.402 300.349 180.542C306.71 176.875 308.136 165.443 304.853 151.091C318.888 146.768 328.056 139.796 328.056 132.461ZM298.583 117.363C297.745 120.283 296.704 123.293 295.527 126.304C294.599 124.493 293.625 122.682 292.562 120.871C291.52 119.06 290.411 117.295 289.302 115.574C292.516 116.05 295.617 116.638 298.583 117.363ZM288.215 141.471C286.45 144.527 284.639 147.424 282.76 150.118C279.387 150.412 275.969 150.571 272.528 150.571C269.11 150.571 265.692 150.412 262.341 150.141C260.463 147.447 258.629 144.572 256.863 141.539C255.143 138.573 253.581 135.563 252.155 132.529C253.558 129.496 255.143 126.463 256.841 123.497C258.606 120.441 260.417 117.544 262.296 114.85C265.669 114.556 269.087 114.397 272.528 114.397C275.946 114.397 279.364 114.556 282.715 114.827C284.593 117.521 286.427 120.396 288.193 123.429C289.913 126.395 291.475 129.405 292.901 132.439C291.475 135.472 289.913 138.505 288.215 141.471ZM295.527 138.528C296.749 141.561 297.791 144.595 298.651 147.537C295.685 148.262 292.562 148.873 289.324 149.348C290.434 147.605 291.543 145.817 292.584 143.983C293.625 142.173 294.599 140.339 295.527 138.528ZM272.573 162.681C270.468 160.508 268.363 158.086 266.28 155.438C268.318 155.528 270.4 155.596 272.505 155.596C274.633 155.596 276.738 155.551 278.798 155.438C276.761 158.086 274.656 160.508 272.573 162.681ZM255.732 149.348C252.517 148.873 249.416 148.284 246.45 147.56C247.288 144.64 248.329 141.629 249.506 138.619C250.434 140.43 251.408 142.24 252.472 144.051C253.536 145.862 254.622 147.628 255.732 149.348ZM272.46 102.241C274.565 104.414 276.671 106.837 278.753 109.485C276.716 109.395 274.633 109.327 272.528 109.327C270.4 109.327 268.295 109.372 266.235 109.485C268.272 106.837 270.378 104.414 272.46 102.241ZM255.709 115.574C254.6 117.317 253.49 119.106 252.449 120.939C251.408 122.75 250.434 124.561 249.506 126.372C248.284 123.339 247.243 120.305 246.383 117.363C249.348 116.661 252.472 116.05 255.709 115.574ZM235.223 143.916C227.209 140.497 222.025 136.015 222.025 132.461C222.025 128.907 227.209 124.403 235.223 121.007C237.169 120.17 239.297 119.423 241.493 118.721C242.783 123.158 244.481 127.776 246.586 132.507C244.504 137.215 242.829 141.81 241.561 146.225C239.32 145.523 237.192 144.753 235.223 143.916ZM247.401 176.264C244.323 174.498 242.987 167.775 244.028 159.127C244.277 157 244.685 154.759 245.183 152.472C249.62 153.559 254.464 154.396 259.557 154.94C262.613 159.127 265.782 162.93 268.974 166.258C261.594 173.117 254.668 176.875 249.959 176.875C248.94 176.852 248.08 176.648 247.401 176.264ZM301.096 159.014C302.16 167.662 300.847 174.385 297.791 176.173C297.111 176.58 296.229 176.762 295.187 176.762C290.502 176.762 283.552 173.026 276.173 166.213C279.342 162.885 282.511 159.105 285.521 154.917C290.637 154.374 295.482 153.536 299.918 152.427C300.439 154.713 300.847 156.909 301.096 159.014ZM309.811 143.916C307.864 144.753 305.736 145.5 303.54 146.202C302.25 141.765 300.552 137.147 298.447 132.416C300.53 127.708 302.205 123.112 303.472 118.698C305.713 119.4 307.841 120.17 309.833 121.007C317.847 124.425 323.031 128.907 323.031 132.461C323.008 136.015 317.824 140.52 309.811 143.916Z" fill="white"/>
<path d="M272.505 142.806C278.219 142.806 282.85 138.175 282.85 132.461C282.85 126.748 278.219 122.116 272.505 122.116C266.792 122.116 262.16 126.748 262.16 132.461C262.16 138.175 266.792 142.806 272.505 142.806Z" fill="white"/>
<path d="M371.579 258.123H385.783C389.952 258.158 392.973 259.36 394.846 261.727C396.719 264.094 397.337 267.327 396.701 271.426C396.454 273.299 395.906 275.136 395.058 276.938C394.245 278.74 393.115 280.365 391.666 281.814C389.899 283.651 388.009 284.817 385.995 285.312C383.981 285.807 381.896 286.054 379.741 286.054H373.381L371.367 296.124H364L371.579 258.123ZM377.78 264.165L374.6 280.065C374.812 280.1 375.024 280.118 375.236 280.118C375.483 280.118 375.731 280.118 375.978 280.118C379.37 280.153 382.197 279.818 384.458 279.111C386.719 278.369 388.239 275.79 389.016 271.373C389.652 267.663 389.016 265.525 387.108 264.96C385.235 264.395 382.886 264.13 380.059 264.165C379.635 264.2 379.229 264.218 378.84 264.218C378.487 264.218 378.116 264.218 377.727 264.218L377.78 264.165Z" fill="white"/>
<path d="M405.093 248H412.407L410.34 258.123H416.912C420.516 258.194 423.201 258.936 424.968 260.349C426.77 261.762 427.3 264.448 426.558 268.405L423.007 286.054H415.587L418.979 269.2C419.332 267.433 419.226 266.179 418.661 265.437C418.096 264.695 416.877 264.324 415.004 264.324L409.121 264.271L404.775 286.054H397.461L405.093 248Z" fill="white"/>
<path d="M434.412 258.123H448.616C452.785 258.158 455.806 259.36 457.679 261.727C459.552 264.094 460.17 267.327 459.534 271.426C459.287 273.299 458.739 275.136 457.891 276.938C457.078 278.74 455.948 280.365 454.499 281.814C452.732 283.651 450.842 284.817 448.828 285.312C446.814 285.807 444.729 286.054 442.574 286.054H436.214L434.2 296.124H426.833L434.412 258.123ZM440.613 264.165L437.433 280.065C437.645 280.1 437.857 280.118 438.069 280.118C438.316 280.118 438.564 280.118 438.811 280.118C442.203 280.153 445.03 279.818 447.291 279.111C449.552 278.369 451.072 275.79 451.849 271.373C452.485 267.663 451.849 265.525 449.941 264.96C448.068 264.395 445.719 264.13 442.892 264.165C442.468 264.2 442.062 264.218 441.673 264.218C441.32 264.218 440.949 264.218 440.56 264.218L440.613 264.165Z" fill="white"/>
<path d="M129.007 235C125.587 235.015 122.317 235.307 119.442 235.815C110.967 237.31 109.429 240.449 109.429 246.233V253.872H129.448V256.42H101.918C96.1013 256.42 91.0015 259.918 89.4111 266.578C87.5743 274.209 87.4921 278.977 89.4111 286.944C90.8372 292.879 94.2346 297.101 100.051 297.101H106.935V287.946C106.935 281.331 112.655 275.494 119.442 275.494H139.438C145.001 275.494 149.451 270.905 149.451 265.315V246.233C149.451 240.8 144.874 236.727 139.438 235.815C135.996 235.247 132.427 234.985 129.007 235ZM118.18 241.144C120.249 241.144 121.936 242.863 121.936 244.97C121.936 247.078 120.249 248.775 118.18 248.775C116.105 248.775 114.425 247.071 114.425 244.97C114.425 242.87 116.105 241.144 118.18 241.144Z" fill="white"/>
<path d="M151.945 256.42V265.322C151.945 272.22 146.098 278.028 139.438 278.028H119.442C113.962 278.028 109.429 282.721 109.429 288.207V307.288C109.429 312.722 114.148 315.913 119.442 317.468C125.782 319.336 131.859 319.673 139.438 317.468C144.478 316.01 149.451 313.066 149.451 307.288V299.65H129.455V297.101H159.464C165.28 297.101 167.453 293.035 169.477 286.944C171.567 280.666 171.478 274.627 169.477 266.578C168.036 260.778 165.295 256.42 159.464 256.42H151.945ZM140.7 304.74C142.776 304.74 144.456 306.444 144.456 308.544C144.456 310.644 142.776 312.371 140.7 312.371C138.624 312.371 136.944 310.652 136.944 308.544C136.944 306.436 138.632 304.74 140.7 304.74Z" fill="white"/>
<defs>
<linearGradient id="paint0_linear_230_1214" x1="272" y1="0" x2="272" y2="544" gradientUnits="userSpaceOnUse">
<stop stop-color="#005FAB"/>
<stop offset="1" stop-color="#0693E3"/>
</linearGradient>
</defs>
</svg>
